<?xml version="1.0" encoding="UTF-8"?>
<!-- Generator: visioncortex VTracer 0.6.3 -->
<svg version="1.1" xmlns="http://www.w3.org/2000/svg" width="1280" height="397">
<path d="M0 0 C422.4 0 844.8 0 1280 0 C1280 131.01 1280 262.02 1280 397 C857.6 397 435.2 397 0 397 C0 265.99 0 134.98 0 0 Z " fill="#101C32" transform="translate(0,0)"/>
<path d="M0 0 C11.1 -0.64 11.1 -0.64 14.75 1.94 C15.49 2.62 16.24 3.3 17 4 C23.47 5.17 29.9 5.14 36.45 5.13 C38.14 5.13 38.14 5.13 39.86 5.13 C43.56 5.14 47.26 5.14 50.96 5.13 C53.55 5.13 56.14 5.13 58.73 5.14 C64.17 5.14 69.6 5.14 75.03 5.13 C81.26 5.12 87.49 5.13 93.73 5.13 C99.77 5.14 105.81 5.14 111.85 5.13 C114.39 5.13 116.94 5.13 119.49 5.14 C137.46 5.17 137.46 5.17 155.4 4.29 C162.77 3.77 169.79 3.84 176.04 8.05 C179.67 11.27 181.55 15.24 183.62 19.56 C186 24.43 188.02 28.24 192 32 C192.75 35.25 192.75 35.25 193 38 C194.98 38.66 196.96 39.32 199 40 C199 40.66 199 41.32 199 42 C200.98 41.67 202.96 41.34 205 41 C205.73 42.24 206.43 43.49 207.12 44.75 C207.52 45.45 207.91 46.14 208.32 46.86 C209 49 209 49 208.11 51.14 C207.56 52.06 207.56 52.06 207 53 C207.18 55.9 207.97 56.96 209.88 59.19 C211.96 61.19 211.96 61.19 215 62 C215.73 63.89 215.73 63.89 216.19 66.25 C216.35 67.06 216.51 67.87 216.68 68.71 C217 71 217 71 216.88 73.88 C216.94 74.93 216.94 74.93 217 76 C217.62 76.45 218.24 76.91 218.88 77.38 C221.94 79.72 222.17 82.34 223 86 C223.89 85.77 224.77 85.55 225.69 85.31 C229.61 84.94 230.93 85.63 234 88 C235.49 90.99 235.12 93.71 235 97 C234.67 97.66 234.34 98.32 234 99 C233.59 102.73 233.7 104.51 235.69 107.75 C237.85 110.14 237.85 110.14 240.69 111.06 C241.45 111.37 242.21 111.68 243 112 C243.92 114.23 244.02 116.22 244.25 118.62 C244.5 119.41 244.75 120.19 245 121 C246.64 121.73 248.31 122.39 250 123 C253.07 125.51 254.74 127.11 255.88 130.94 C256 134 256 134 255.31 137.12 C254.67 140.07 254.67 140.07 256.62 142.31 C259.18 144.13 260.95 144.51 264 145 C265.52 148.05 265.24 150.64 265 154 C263.44 155.69 263.44 155.69 262 157 C261.76 159.13 261.76 159.13 263 161 C264.98 161.72 266.98 162.39 269 163 C269.19 165.81 269.38 168.62 269.56 171.44 C269.62 172.24 269.67 173.04 269.73 173.87 C269.86 175.91 269.94 177.96 270 180 C269.67 180.33 269.34 180.66 269 181 C268.5 183.37 268.5 183.37 269 186 C269.8 186.54 270.61 187.07 271.44 187.62 C275.06 190.98 274.73 193.96 274.96 198.73 C274.97 199.48 274.99 200.23 275 201 C274.2 201.28 273.39 201.56 272.56 201.85 C269.79 202.74 269.79 202.74 269 205.38 C268.72 208.05 268.72 208.05 270.5 209.75 C272.46 212.69 272.16 214.82 271.63 218.23 C268.14 233.54 268.14 233.54 262.63 237.84 C258.29 241.28 256.39 245.38 254.06 250.31 C246.93 264.49 238.69 272.47 223.56 278.12 C218.5 280.02 215.71 282.88 212.34 287.05 C209.29 289.59 206.31 290.05 202.5 290.62 C196.46 291.47 196.46 291.47 191 294 C190.57 295.27 190.57 295.27 190.12 296.56 C189.75 297.37 189.38 298.17 189 299 C186.23 299.75 183.86 300 181 300 C180.34 300.99 179.68 301.98 179 303 C176.79 303.12 176.79 303.12 174.19 302.88 C169.87 302.7 169.87 302.7 166.31 305.19 C165.55 306.12 164.79 307.04 164 308 C159.16 312.44 154.62 314.2 148 314 C147.67 313.67 147.34 313.34 147 313 C144.63 312.5 144.63 312.5 142 313 C141.42 313.78 140.85 314.57 140.25 315.38 C137.07 319.09 133.7 319.33 129 320 C128.77 319.2 128.55 318.39 128.31 317.56 C127.88 316.72 127.45 315.87 127 315 C124.45 314.11 124.45 314.11 122 314 C121.86 315.3 121.71 316.6 121.56 317.94 C121.12 321.87 121.12 321.87 120 323 C112.83 325.15 106.35 325.03 99 324 C98.67 325.65 98.34 327.3 98 329 C94.46 329.84 91.06 330.12 87.43 330.24 C79.62 330.52 73.2 331.8 66 335 C64.34 335.67 62.67 336.34 61 337 C60.67 336.67 60.34 336.34 60 336 C57.58 335.58 57.58 335.58 55 336 C54.65 336.66 54.3 337.32 53.93 338 C51.6 340.42 50.89 340.32 47.62 340.46 C45.89 340.45 44.16 340.42 42.44 340.38 C41.12 340.37 41.12 340.37 39.78 340.37 C33.28 340.28 33.28 340.28 31 338 C30.34 338.52 29.68 339.03 29 339.56 C24.85 341.55 22.47 340.83 18 340 C17.34 341.32 16.68 342.64 16 344 C-5.12 344.33 -26.24 344.66 -48 345 C-48.33 343.35 -48.66 341.7 -49 340 C-49.62 340.17 -50.24 340.33 -50.88 340.5 C-56.42 341.39 -61.88 342.06 -67 339.5 C-67.99 338.76 -67.99 338.76 -69 338 C-69.66 338 -70.32 338 -71 338 C-71.33 338.66 -71.66 339.32 -72 340 C-75.59 339.78 -79.17 339.52 -82.75 339.25 C-83.77 339.19 -84.78 339.13 -85.83 339.06 C-87.3 338.95 -87.3 338.95 -88.8 338.83 C-89.7 338.77 -90.6 338.7 -91.53 338.64 C-94.65 337.83 -95.84 336.32 -98 334 C-100.79 333.3 -100.79 333.3 -103.81 333.25 C-104.87 333.19 -105.92 333.13 -107.01 333.07 C-109.4 333.01 -111.74 333.03 -114.12 333.12 C-115.07 333.08 -116.02 333.04 -117 333 C-117.99 331.51 -117.99 331.51 -119 330 C-120.55 330.46 -120.55 330.46 -122.12 330.94 C-127.43 331.66 -131.36 329.07 -135.84 326.62 C-139.13 324.84 -141.81 323.57 -145.56 323.38 C-150 322.89 -150.95 321.13 -154 318 C-156.64 317.08 -159.26 316.58 -162 316 C-162.66 315.34 -163.32 314.68 -164 314 C-166.5 313.8 -168.4 313.76 -170.74 314.71 C-174.24 315.16 -176.77 313.43 -179.75 311.81 C-180.68 311.33 -180.68 311.33 -181.63 310.83 C-183.43 309.9 -185.21 308.95 -187 308 C-192.38 305.22 -192.38 305.22 -198 303 C-199.12 300.5 -199.12 300.5 -200 298 C-200.33 297.67 -200.66 297.34 -201 297 C-202.36 297.09 -203.71 297.19 -205.06 297.31 C-209.96 297.36 -212.74 295.9 -216.47 292.8 C-218.92 289.92 -219 287.72 -219 284 C-222.55 283.1 -222.55 283.1 -226.12 283.56 C-226.74 283.71 -227.36 283.85 -228 284 C-231.63 281.58 -231.79 280.06 -233 276 C-234.1 274.67 -234.1 274.67 -236.81 274.94 C-237.86 274.96 -238.92 274.98 -240 275 C-244.78 275 -245.38 274.17 -248.75 271 C-249.95 269.89 -249.95 269.89 -251.17 268.75 C-252.08 267.88 -252.08 267.88 -253 267 C-252.67 266.34 -252.34 265.68 -252 265 C-251.96 263 -251.96 261 -252 259 C-252.74 258.88 -253.49 258.75 -254.25 258.62 C-256.93 258.02 -258.72 257.53 -261 256 C-261.77 253.68 -261.77 253.68 -262.25 250.88 C-263.58 245.27 -265.77 242.69 -270 238.92 C-272.57 236.45 -274.19 233.76 -275.89 230.66 C-277.06 228.68 -277.06 228.68 -280 227 C-282.7 219.12 -282.27 210.34 -282.19 202.12 C-282.19 200.93 -282.19 199.73 -282.19 198.5 C-282.16 193.49 -281.98 188.91 -281 184 C-280.88 181.88 -280.8 179.76 -280.75 177.63 C-280.72 176.42 -280.69 175.2 -280.65 173.95 C-280.59 171.41 -280.54 168.87 -280.48 166.32 C-280.14 154.05 -280.14 154.05 -278 149 C-277.05 148.55 -276.1 148.09 -275.12 147.62 C-271.05 145.5 -270.47 143.36 -268.89 139.2 C-268 137 -268 137 -266.12 134.5 C-264.54 130.97 -265.71 128.71 -266.71 125.09 C-267 123 -267 123 -265.25 120.44 C-263 119 -263 119 -261 119 C-260.77 118.38 -260.55 117.76 -260.31 117.12 C-258.62 114.39 -257.01 113.95 -254 113 C-253.62 110.67 -253.29 108.34 -253 106 C-253.5 105.5 -253.5 105.5 -254 105 C-253.91 102.64 -253.75 100.29 -253.56 97.94 C-253.46 96.65 -253.36 95.36 -253.25 94.03 C-253.17 93.03 -253.09 92.03 -253 91 C-252.24 90.82 -251.48 90.64 -250.7 90.45 C-249.71 90.2 -248.71 89.95 -247.69 89.69 C-246.7 89.44 -245.72 89.2 -244.7 88.95 C-241.94 87.98 -240.72 87.32 -239 85 C-238.09 81.49 -238.09 81.49 -238 78 C-238.99 77.01 -238.99 77.01 -240 76 C-239.88 73 -239.88 73 -239 70 C-236.95 68.81 -236.95 68.81 -235 68 C-235.1 67.26 -235.19 66.53 -235.29 65.77 C-235.4 64.79 -235.51 63.82 -235.62 62.81 C-235.74 61.85 -235.86 60.89 -235.98 59.89 C-236 56.76 -235.34 54.81 -234 52 C-230.05 51.82 -227.4 51.91 -224 54 C-224.52 53.11 -225.03 52.23 -225.56 51.31 C-227.09 47.79 -227.22 46.55 -226 43 C-225 42 -225 42 -222.44 41.94 C-221.63 41.96 -220.83 41.98 -220 42 C-220.04 40.72 -220.08 39.44 -220.12 38.12 C-220.2 35.95 -220.2 35.95 -220 34 C-219.34 33.34 -218.68 32.68 -218 32 C-214.38 32.38 -214.38 32.38 -211 33 C-210.54 32.04 -210.54 32.04 -210.06 31.06 C-209 29 -209 29 -208 28 C-207.83 25.5 -207.83 25.5 -208 23 C-208.33 22.67 -208.66 22.34 -209 22 C-209.12 20.38 -209.18 18.75 -209.19 17.12 C-209.2 16.24 -209.22 15.36 -209.23 14.45 C-209 12 -209 12 -207 9 C-204.19 7.94 -204.19 7.94 -201 7 C-199.83 6.48 -199.83 6.48 -198.63 5.96 C-195.82 4.93 -193.76 4.76 -190.79 4.77 C-189.24 4.76 -189.24 4.76 -187.66 4.76 C-185.98 4.78 -185.98 4.78 -184.27 4.79 C-183.08 4.79 -181.9 4.79 -180.67 4.79 C-177.42 4.8 -174.17 4.81 -170.91 4.83 C-167.5 4.85 -164.08 4.85 -160.66 4.86 C-154.18 4.87 -147.69 4.89 -141.2 4.91 C-129.63 4.96 -118.05 4.99 -106.47 5.01 C-103.08 5.02 -99.69 5.03 -96.29 5.04 C-92.49 5.06 -88.69 5.07 -84.89 5.08 C-83.79 5.09 -82.69 5.1 -81.56 5.1 C-74.69 5.11 -67.91 4.78 -61.07 4.22 C-56.46 3.89 -51.89 3.95 -47.27 4.04 C-44.21 4.08 -41.93 3.98 -39 3 C-36.24 2.93 -33.51 2.91 -30.75 2.94 C-29.95 2.94 -29.14 2.95 -28.31 2.95 C-24.85 2.97 -21.4 2.99 -17.95 3.02 C-15.42 3.04 -12.9 3.05 -10.38 3.06 C-9.21 3.07 -9.21 3.07 -8.02 3.09 C-4.5 3.1 -1.38 2.95 2 2 C1.34 1.34 0.68 0.68 0 0 Z " fill="#9aa4a3" transform="translate(652,0)"/>
<path d="M0 0 C70.29 0 140.58 0 213 0 C213 0.66 213 1.32 213 2 C213.99 2 214.98 2 216 2 C216 2.66 216 3.32 216 4 C219.3 4.99 222.6 5.98 226 7 C224 11 224 11 221.69 12.94 C217.94 16.44 216.76 21.41 215.11 26.14 C214 29 214 29 212 31 C211.72 33.58 211.72 33.58 211.81 36.62 C211.83 37.78 211.84 38.94 211.86 40.13 C211.96 42.85 212.1 45.53 212.3 48.24 C212.35 48.95 212.41 49.66 212.46 50.39 C212.62 52.42 212.8 54.44 212.98 56.47 C213.01 61.53 212.01 63.96 208.5 67.56 C207.68 68.37 206.85 69.17 206 70 C204.11 73.01 203.8 74.88 204.31 78.38 C204.47 79.54 204.47 79.54 204.64 80.74 C204.76 81.48 204.88 82.23 205 83 C205.19 84.18 205.37 85.35 205.56 86.56 C205.78 87.77 205.78 87.77 206 89 C204.76 89.53 203.5 90.05 202.25 90.56 C201.55 90.85 200.86 91.14 200.14 91.44 C197.7 92.08 196.36 91.8 194 91 C192.75 86.49 192.75 86.49 194 84.06 C195.41 81.15 194.7 79.08 194 76 C193.67 76 193.34 76 193 76 C192.72 71.17 193.6 67.82 195.44 63.38 C197.54 58.29 197.54 58.29 199 53 C198.01 52.67 197.02 52.34 196 52 C194.55 55.48 193.4 58.96 192.31 62.56 C190.12 69.22 186.98 75.23 183 81 C180.22 82.39 178.08 82.18 175 82 C173.67 81.33 172.33 80.67 171 80 C168.39 80.25 166.92 81.05 164.69 82.44 C162 84 162 84 158.25 85.06 C157.18 85.37 156.1 85.68 155 86 C154.67 86.66 154.34 87.32 154 88 C154.66 88.03 155.33 88.05 156.01 88.08 C160.23 88.35 163.38 88.69 167.19 90.62 C169 93 169 93 168.88 96.38 C168.59 97.57 168.3 98.77 168 100 C166.77 105.14 167.31 106.58 170 111 C170.61 116.45 169.69 120.23 167 125 C163.72 128.52 160.8 131.09 156 132 C155.88 132.58 155.75 133.16 155.62 133.75 C155 136 155 136 153.94 137.75 C152.73 140.19 152.73 140.19 153.19 143.88 C153.35 148.62 150.98 150.42 148 154 C147.59 158.33 147.89 161.43 148.75 165.69 C149 169 149 169 147.56 171.75 C145.16 173.86 144.09 174.44 141.19 175.38 C136.91 176.76 134.72 179.07 131.69 182.3 C124.93 189.11 114.14 191.32 105 193 C104.67 193.99 104.34 194.98 104 196 C99.25 197.13 99.25 197.13 97 196 C97 195.34 97 194.68 97 194 C95.71 194.62 94.41 195.25 93.12 195.88 C92.05 196.4 92.05 196.4 90.95 196.93 C88.85 197.97 88.85 197.97 87 200 C87.17 202.08 87.17 202.08 88 204 C88.66 204.33 89.32 204.66 90 205 C88.65 209.41 86.94 211.58 83 214 C79.94 214.56 79.94 214.56 77 214 C74.63 211.5 74.63 211.5 73 209 C69.53 209.56 68.12 210.59 65.94 213.31 C65.42 213.94 64.91 214.57 64.38 215.21 C62.91 217.07 62.91 217.07 61.44 219.44 C60 221 60 221 57.38 221.31 C55 221 55 221 54 220 C49.98 220.33 46.67 221.05 42.94 222.56 C39.47 223.92 36.76 224.6 33 224 C30.81 222.19 30.81 222.19 29 220 C24.01 214.29 18.2 212.55 10.94 211.59 C8 211 8 211 0 208 C0 139.36 0 70.72 0 0 Z " fill="#101C33" transform="translate(0,0)"/>
<path d="M0 0 C71.94 0 143.88 0 218 0 C218 66 218 132 218 200 C215.03 201.65 212.06 203.3 209 205 C207.53 209.19 207.53 209.19 207.32 211.91 C207 214 207 214 205 217 C199.12 219.46 193.16 220.92 187 219 C186.53 218.32 186.05 217.64 185.56 216.94 C185.05 216.3 184.53 215.66 184 215 C181.32 214.73 178.7 214.91 176 215 C174 213 174 213 173.75 210.5 C174 208 174 208 176 206 C177.67 205.33 179.33 204.67 181 204 C181.66 203.34 182.32 202.68 183 202 C187.29 201.79 190.86 201.84 195 203 C196.42 201.82 196.42 201.82 196.06 198.44 C196.03 196.74 196.03 196.74 196 195 C190.02 192.95 190.02 192.95 184 194 C183.38 194.68 182.76 195.36 182.12 196.06 C180 198 180 198 176.5 198.38 C173.27 198.03 171.77 197.48 169 196 C167.33 195.96 165.67 195.96 164 196 C164.68 196.94 164.68 196.94 165.38 197.91 C169.95 204.7 169.95 204.7 170.09 208.23 C168.84 213.62 165.89 218.11 162 222 C159.49 222.25 157.14 222.37 154.62 222.38 C153.95 222.4 153.28 222.42 152.59 222.45 C149.2 222.47 147.32 222.24 144.57 220.21 C142.45 217.23 142.28 214.59 142 211 C141.28 210.89 140.55 210.78 139.8 210.67 C131.88 209.37 126.75 207.75 121 202 C118.86 201.21 118.86 201.21 117 201 C116.69 197.75 116.69 197.75 117 194 C119.5 191.56 119.5 191.56 122 190 C120.54 189.64 119.08 189.29 117.62 188.94 C116.81 188.74 116 188.54 115.16 188.34 C112.96 187.78 112.96 187.78 111 189 C104.75 189.46 98.38 189.89 93.29 185.84 C91.81 184.08 90.37 182.28 88.98 180.44 C86.15 176.95 83.09 175.62 79 174 C77.53 173.35 76.08 172.68 74.62 172 C73.98 171.71 73.33 171.42 72.66 171.12 C70.46 169.64 69.91 168.49 69 166 C68.4 162.67 67.99 159.35 67.56 156 C67.17 152.83 67.17 152.83 65 150 C64.54 147.26 64.17 144.57 63.88 141.81 C63.79 141.06 63.7 140.31 63.61 139.54 C63.4 137.69 63.2 135.85 63 134 C62.34 134 61.68 134 61 134 C60.67 134.99 60.34 135.98 60 137 C54.87 135.64 51.72 132.43 49 128 C48.88 125.31 48.88 125.31 50 123 C50.68 122.38 51.36 121.76 52.06 121.12 C54.39 119.06 54.39 119.06 54 115.56 C54 111.23 55.2 110.15 58 107 C58 106.01 58 105.02 58 104 C57.46 103.83 56.91 103.66 56.36 103.48 C53.07 102.37 50.52 101.48 47.94 99.12 C47 97 47 97 46.88 94.56 C48.35 91.19 50.41 90.07 53.5 88.21 C54.24 87.61 54.24 87.61 55 87 C55 86.01 55 85.02 55 84 C54.22 83.42 53.43 82.84 52.62 82.25 C49.34 79.44 48.88 77.15 48 73 C47.34 73 46.68 73 46 73 C45.96 73.72 45.93 74.45 45.89 75.2 C45.17 85.69 45.17 85.69 42 90 C39.56 91.12 39.56 91.12 37 91 C34.71 89.16 33.31 87.63 32 85 C31.97 83.24 32.01 81.49 32.08 79.73 C32.12 78.15 32.12 78.15 32.16 76.54 C32.22 74.32 32.3 72.09 32.39 69.87 C32.64 63.5 32.64 63.5 29.75 58.03 C28.39 57.03 28.39 57.03 27 56 C25.57 54.45 24.15 52.89 22.75 51.31 C22.06 50.55 21.38 49.78 20.67 48.99 C19 47 19 47 18 45 C17.01 45.49 17.01 45.49 16 46 C15.83 50.32 15.8 53.26 18 57 C18.12 57.6 18.25 58.2 18.38 58.81 C18.96 61.28 18.96 61.28 21.06 64.12 C23.74 68.57 23.36 72.96 23 78 C22.67 78 22.34 78 22 78 C21.98 79.24 21.96 80.47 21.94 81.75 C21.49 85.58 21.49 85.58 19.45 87.32 C17.66 88.26 15.83 89.13 14 90 C13.34 90.99 12.68 91.98 12 93 C10.68 92.67 9.36 92.34 8 92 C7.19 90.31 7.19 90.31 7 88 C8.62 86.29 10.29 84.63 12 83 C13.62 80.61 13.62 80.61 14 78 C12.63 74.85 10.58 72.47 8.38 69.88 C5.12 65.93 4.73 63.04 4.77 57.98 C5.09 55.2 6.55 53.36 8 51 C8.93 42.92 5.65 35.96 1.96 28.97 C0.99 26.97 0.27 24.98 -0.44 22.88 C-1.46 19.98 -2.66 17.99 -4.69 15.69 C-7 13 -7 13 -7 10 C-6.01 10 -5.02 10 -4 10 C-4 9.34 -4 8.68 -4 8 C-3.34 7.55 -2.68 7.09 -2 6.62 C-1.34 6.09 -0.68 5.55 0 5 C0 3.68 0 2.36 0 1 C0 0.67 0 0.34 0 0 Z " fill="#101C33" transform="translate(1062,0)"/>
<path d="M0 0 C1.49 -0.02 1.49 -0.02 3.01 -0.04 C4.45 -0.04 4.45 -0.04 5.91 -0.04 C6.78 -0.05 7.65 -0.05 8.54 -0.06 C11.1 0.2 12.73 0.9 14.94 2.19 C13.95 2.19 12.96 2.19 11.94 2.19 C11.81 3.05 11.68 3.91 11.55 4.8 C10.95 8.1 10.14 11.22 9.19 14.44 C7.97 18.59 6.78 22.75 5.63 26.93 C5.41 27.73 5.19 28.53 4.97 29.35 C4.54 30.92 4.11 32.49 3.69 34.06 C2.88 37.01 2.07 39.87 0.92 42.71 C-0.45 46.16 -1.26 49.71 -2.12 53.31 C-3.96 60.87 -3.96 60.87 -5.06 64.19 C-5.3 66.69 -5.48 69.18 -5.62 71.69 C-5.69 72.76 -5.69 72.76 -5.75 73.85 C-6.84 83.87 -6.84 83.87 -5.07 93.48 C-3.73 97.07 -3.69 100.48 -3.69 104.25 C-3.66 104.96 -3.64 105.66 -3.61 106.39 C-3.59 109.82 -3.78 111.81 -5.83 114.6 C-8 116.15 -9.57 116.85 -12.12 117.5 C-15.55 118.69 -15.97 119.04 -18.06 122.31 C-19.41 126.52 -20.1 130.85 -19.06 135.19 C-17.74 136.76 -17.74 136.76 -16.06 138.06 C-14.13 139.77 -13.19 140.77 -12.45 143.26 C-12.02 150.85 -14.59 157.84 -16.77 164.99 C-25.39 193.98 -19.36 220.1 -8.52 247.48 C-6.44 252.77 -5.83 256.97 -5.54 262.59 C-5.24 265.17 -5.24 265.17 -3.87 266.95 C-1.48 268.59 0.65 268.92 3.5 269.44 C10.18 270.99 14.67 273.89 19.94 278.19 C21.02 279.04 21.02 279.04 22.12 279.92 C27.55 284.41 31.46 289.55 35.41 295.34 C41.69 304.09 49.55 311.73 60.36 313.75 C61.76 313.95 63.16 314.13 64.56 314.28 C67.83 314.64 69.7 315 72.31 317.07 C73.94 319.19 73.94 319.19 75.38 322.25 C77.89 326.99 82.02 328.36 86.94 330 C91.13 331.47 95.07 333.17 99.06 335.12 C108.27 339.47 118.14 342.31 128.12 344.25 C132.17 345.24 134.59 346.78 137.94 349.19 C141.26 350.32 144.45 350.29 147.94 350.38 C152.83 350.71 155.99 351.5 160.19 354 C167.28 357.98 174.74 358.61 182.71 359.71 C189.84 360.74 195.76 362.28 202.38 365.15 C209.37 367.99 216.92 367.22 224.31 366.93 C227.45 367.15 229.34 367.59 232.22 368.65 C237.32 370.47 242.05 370.75 247.44 370.88 C249.03 370.92 249.03 370.92 250.66 370.97 C262.1 371.26 273.56 371.32 285.01 371.36 C287.19 371.37 289.38 371.38 291.57 371.4 C304.83 371.47 316.96 371.02 329.83 367.66 C337.5 365.67 345.26 365.08 353.13 364.37 C359.11 363.78 364.28 362.87 369.9 360.79 C373.31 359.78 376.55 360.13 380.06 360.38 C390.6 360.73 399.96 357.87 410 354.99 C414.73 353.7 419.52 352.71 424.31 351.69 C431.82 350.06 438.9 347.93 446.08 345.21 C451.4 343.25 456.58 342.32 462.21 341.6 C470.08 340.41 475.63 335.63 481.68 330.79 C484.92 328.32 487.7 326.84 491.62 325.69 C495.84 324.43 497.34 322.77 499.94 319.19 C507.21 314.76 515.05 314.95 523.3 314.76 C528.16 314.56 531.87 314.1 535.94 311.19 C537.55 308.22 537.55 308.22 538.5 304.81 C540.29 299.65 541.53 296.44 545.94 293.19 C549.17 292.11 551.67 292.08 555.06 292 C561.86 291.53 565.78 289.5 570.94 285.19 C575.94 281.19 575.94 281.19 578.13 280 C583.05 277.27 583.05 277.27 585.97 272.64 C586.66 269.86 586.66 269.86 587.01 267.16 C588.14 263.54 589.99 261.31 592.32 258.36 C595 254.76 597.03 250.83 599.12 246.88 C599.97 245.29 600.82 243.71 601.67 242.14 C602.03 241.45 602.4 240.76 602.77 240.05 C604.95 236.56 607.38 234.79 611.06 233.06 C613.7 231.91 613.7 231.91 615.94 230.19 C615.71 227.97 615.47 225.75 615.23 223.53 C614.88 219.52 614.75 215.53 614.66 211.51 C614.64 210.73 614.62 209.96 614.6 209.15 C614.52 205.9 614.45 202.65 614.39 199.4 C614.33 197 614.28 194.6 614.22 192.2 C614.2 191.1 614.2 191.1 614.18 189.99 C614.09 186.27 613.75 182.81 612.94 179.19 C612.62 173.41 612.31 167.59 614 162 C616.07 153.57 613.42 145.86 610.5 137.94 C608.3 131.75 606.58 126.11 606 119.56 C605.34 113.11 602.81 109.33 598.71 104.39 C596.07 101.11 595.84 98.38 595.62 94.31 C594.6 83.28 590.74 74.51 585.56 64.88 C571.8 39.26 571.8 39.26 575.46 26.35 C576.35 22.35 576.16 18.27 576.19 14.19 C576.21 13.29 576.23 12.38 576.25 11.45 C576.26 10.15 576.26 10.15 576.27 8.81 C576.27 8.02 576.28 7.23 576.29 6.41 C575.85 3.66 574.65 2.34 572.94 0.19 C580.19 0.14 587.44 0.11 594.69 0.08 C598.05 0.07 601.42 0.06 604.79 0.04 C608.66 0.01 612.52 0 616.39 -0.01 C617.6 -0.02 618.81 -0.03 620.06 -0.04 C621.18 -0.04 622.3 -0.04 623.46 -0.04 C624.44 -0.04 625.43 -0.05 626.45 -0.05 C628.94 0.19 628.94 0.19 631.94 2.19 C629.94 4.19 629.94 4.19 626.5 4.42 C625.12 4.41 623.75 4.4 622.38 4.38 C621.68 4.37 620.98 4.37 620.26 4.37 C615.08 4.33 615.08 4.33 613.94 3.19 C611.77 3.09 609.6 3.06 607.44 3.06 C606.25 3.06 605.07 3.06 603.84 3.05 C601.04 2.86 601.04 2.86 599.94 4.19 C594.76 4.5 590.79 3.77 585.94 2.19 C585.94 2.85 585.94 3.51 585.94 4.19 C585.28 4.19 584.62 4.19 583.94 4.19 C582.24 11.19 582.82 17.15 585.25 23.88 C585.51 24.6 585.76 25.32 586.02 26.06 C588.68 33.16 592.27 39.69 596.07 46.24 C598.9 51.13 601.08 55.85 602.94 61.19 C605.13 66.7 607.55 70.2 612.35 73.77 C615.94 76.98 616.24 80.63 616.75 85.25 C617.72 91.97 619.95 97.15 622.94 103.19 C623.95 105.49 624.95 107.81 625.94 110.12 C626.69 111.88 626.69 111.88 627.46 113.68 C629.26 117.96 631.02 122.26 632.76 126.57 C633.86 129.21 633.86 129.21 635.49 131.5 C637.43 135.1 637.87 138.55 638.44 142.56 C639.33 148.82 640.53 154.43 644.01 159.87 C648.09 166.59 647.35 173.69 647.12 181.31 C647.07 183.98 647.02 186.65 646.98 189.32 C646.95 190.49 646.92 191.67 646.89 192.88 C646.94 196.1 647.35 199.03 647.94 202.19 C648.36 208.26 647.31 213.2 645.71 219.05 C644.96 222.08 644.59 224.97 644.25 228.06 C642.38 239.89 633.25 253.49 623.75 260.56 C620.06 264.01 618.93 267.63 617.31 272.35 C614.88 277.38 610.66 279.46 605.81 281.88 C600.57 284.66 596.34 288.05 591.83 291.88 C586.86 295.84 581.4 298.97 575.94 302.19 C567.79 307.12 567.79 307.12 560.82 313.56 C557.32 316.75 553.81 318.38 549.5 320.25 C545.39 322.06 541.52 323.79 537.79 326.32 C534.75 328.31 532.2 329.16 528.69 330.06 C523.44 331.59 519.31 333.53 514.73 336.47 C502.03 344.26 490.41 349.14 475.47 349.88 C470.18 350.34 466.13 351.71 461.69 354.7 C458.3 356.53 455.31 356.98 451.5 357.56 C446.14 358.45 441.28 359.65 436.19 361.62 C428.02 364.75 419.59 366.25 411.01 367.79 C408.95 368.15 408.95 368.15 407.03 368.74 C404.35 369.31 401.89 369.19 399.14 369.1 C391.46 369.04 384.17 370.22 376.62 371.56 C375.31 371.79 373.99 372.01 372.67 372.23 C365.32 373.5 365.32 373.5 358.07 375.26 C353.65 376.39 349.45 376.41 344.91 376.31 C343.65 376.3 343.65 376.3 342.37 376.29 C338.84 376.26 335.3 376.2 331.76 376.15 C329.17 376.11 326.57 376.09 323.97 376.06 C323.18 376.05 322.4 376.03 321.58 376.01 C317.06 375.97 313.24 376.52 308.89 377.73 C305.63 378.5 302.41 378.45 299.07 378.46 C297.59 378.48 296.11 378.5 294.64 378.52 C292.35 378.55 290.06 378.56 287.78 378.57 C279.6 378.6 272.49 378.77 264.94 382.31 C262.1 383.56 259.98 383.67 256.94 383.19 C253.9 381.91 253.9 381.91 250.88 380.25 C245.1 377.11 240.62 376.09 234.08 375.98 C232.96 375.95 231.85 375.92 230.7 375.89 C228.37 375.84 226.05 375.79 223.73 375.76 C218.66 375.62 214.16 375.49 209.4 373.64 C203.76 371.49 198.19 372.04 192.25 372.25 C182.2 372.41 174.35 371.89 164.94 368.19 C161.28 366.77 157.61 365.38 153.94 364 C152.5 363.46 152.5 363.46 151.04 362.91 C144.56 360.55 139.18 359.51 132.27 359.37 C114.46 358.39 95.54 349.74 79.26 343.09 C73.11 340.69 67.13 339.33 60.59 338.49 C55.38 337.7 52.82 335.62 48.94 332.19 C46.04 330.78 46.04 330.78 43.06 329.75 C38.39 327.91 34.79 325.86 30.91 322.7 C28.78 321.07 26.6 319.85 24.25 318.56 C19.06 315.54 14.96 311.7 10.63 307.59 C5.69 302.91 0.81 298.62 -5.31 295.56 C-9.14 293.65 -11.36 291.51 -13.37 287.74 C-15.31 284.81 -16.91 283.85 -20 282.25 C-28.39 277.42 -30.63 269.86 -34.06 261.19 C-34.43 260.33 -34.79 259.48 -35.17 258.6 C-36.05 256.21 -36.39 254.15 -36.69 251.62 C-37.53 247.06 -39.25 244.14 -41.94 240.38 C-48.24 231.4 -50.09 221.56 -52.31 211 C-52.49 210.18 -52.66 209.36 -52.84 208.52 C-54.32 201.07 -54.76 193.89 -53.12 186.44 C-52.17 181.8 -51.93 177.35 -51.82 172.63 C-51.54 161.13 -49.7 150.75 -46.71 139.66 C-45.88 136.49 -45.18 133.29 -44.48 130.08 C-43.06 123.6 -41.26 118.03 -38.06 112.19 C-36.66 106.05 -36.76 99.71 -36.63 93.44 C-36.4 87.02 -35.29 83.62 -30.88 78.8 C-28.52 75.4 -28.77 73.46 -29.06 69.38 C-29.21 63.27 -29.03 58.98 -25.06 54.19 C-23.57 52.87 -22.04 51.58 -20.5 50.31 C-15.48 46.07 -14.37 42.48 -13.06 36.19 C-12.58 34.27 -12.09 32.35 -11.59 30.43 C-11.09 28.52 -10.6 26.61 -10.12 24.7 C-9.06 21.19 -9.06 21.19 -7.43 17.96 C-5.61 14.27 -6.13 12.14 -7.06 8.19 C-8.04 5.37 -8.04 5.37 -9.06 3.19 C-11.37 2.86 -13.68 2.53 -16.06 2.19 C-16.06 1.86 -16.06 1.53 -16.06 1.19 C-10.68 -0.02 -5.49 0 0 0 Z " fill="#0F1C31" transform="translate(350.0625,-0.1875)"/>
<path d="M0 0 C51.81 0 103.62 0 157 0 C156.34 1.32 155.68 2.64 155 4 C156.65 4 158.3 4 160 4 C160 5.65 160 7.3 160 9 C158.84 9.43 157.69 9.87 156.5 10.31 C151.51 12.52 147.11 15.43 142.62 18.5 C141.92 18.97 141.22 19.45 140.5 19.94 C137.04 22.34 134.37 24.45 132 28 C129.63 29.56 129.63 29.56 127 31 C125.67 31.84 125.67 31.84 124.31 32.69 C122 34 122 34 120 34 C119.75 34.6 119.49 35.21 119.23 35.83 C117.84 38.27 116.64 39.16 114.31 40.69 C108.88 44.58 104.92 49.61 101.64 55.41 C99.64 58.58 97.2 61.18 94.62 63.88 C90.17 68.61 85.85 73.43 81.62 78.38 C77.17 83.57 72.59 88.6 67.88 93.56 C61.43 100.36 55.67 107.56 50 115 C49.23 115.9 48.47 116.8 47.68 117.72 C45.68 119.91 45.68 119.91 46.25 122.81 C46.5 123.53 46.74 124.26 47 125 C47.92 124.95 47.92 124.95 48.86 124.89 C49.67 124.87 50.48 124.84 51.31 124.81 C52.51 124.76 52.51 124.76 53.74 124.71 C56 125 56 125 57.76 126.26 C59.22 128.31 59.42 129.56 59.56 132.06 C59.59 136 59.59 136 62 138 C67.6 138.55 71.09 137.41 76 135 C75.65 134.26 75.3 133.51 74.94 132.75 C73.93 129.79 74.12 128.88 75 126 C82.68 125.79 89.56 125.98 97 128 C97.62 129.87 97.62 129.87 98 132 C96 134 96 134 93.4 134.2 C92.4 134.17 91.4 134.15 90.38 134.12 C89.37 134.11 88.37 134.09 87.34 134.07 C86.57 134.05 85.79 134.02 85 134 C85 134.99 85 135.98 85 137 C86.77 138.03 86.77 138.03 88.94 138.94 C91.92 140.67 92.84 141.49 93.89 144.82 C94.41 149.4 94.58 152.8 92.56 157 C87.91 160.63 84.22 163.07 78.19 162.88 C75 162 75 162 72 160 C69.16 159.72 69.16 159.72 66.06 159.81 C65.02 159.82 63.98 159.83 62.91 159.83 C60.44 159.97 58.36 160.29 56 161 C55.67 160.34 55.34 159.68 55 159 C53.97 158.92 52.94 158.84 51.88 158.75 C47.96 157.99 47.27 157.63 44.56 155.06 C42.01 152.64 40.2 151.54 36.75 150.81 C32.89 149.98 32.55 149.55 30 147 C23.5 147.78 17.72 151.34 12.88 155.62 C8.96 158.86 5.2 161 0 161 C0 107.87 0 54.74 0 0 Z " fill="#0F1F36" transform="translate(0,0)"/>
<path d="M0 0 C2.94 1.47 5.16 3.73 7.56 5.94 C8.1 6.43 8.64 6.92 9.19 7.43 C13.33 11.27 17.12 15.34 20.84 19.59 C23.76 22.85 26.87 25.89 30 28.96 C31.72 30.72 33.28 32.5 34.81 34.44 C36.73 37.03 36.73 37.03 38.94 37.96 C41.21 39.1 42.42 40.3 44.09 42.19 C44.93 43.11 44.93 43.11 45.78 44.05 C46.93 45.35 48.07 46.65 49.22 47.95 C50.06 48.87 50.06 48.87 50.91 49.81 C51.4 50.38 51.9 50.94 52.42 51.52 C54.15 53.14 55.89 53.94 58 55 C59.04 56.64 60.04 58.31 61 60 C63.04 62.38 64.45 63.78 67.38 64.94 C69.97 65.99 71.87 67.17 74.12 68.81 C78.29 71.8 82.49 74.7 86.73 77.58 C93.5 82.18 100.2 86.84 106.75 91.75 C112.25 95.87 117.92 99.52 123.9 102.92 C126.88 104.63 129.61 106.42 132.23 108.64 C134.74 110.78 137.21 112.21 140.09 113.78 C143.26 115.81 145.89 118.43 148.66 120.98 C151.61 123.53 154.78 125.58 158.05 127.7 C160.38 129.25 162.29 130.77 164 133 C164 134.32 164 135.64 164 137 C109.55 137 55.1 137 -1 137 C-1.02 114.58 -1.04 92.16 -1.06 69.06 C-1.07 61.97 -1.08 54.88 -1.09 47.57 C-1.09 38.95 -1.09 38.95 -1.1 34.91 C-1.1 32.08 -1.1 29.25 -1.11 26.42 C-1.11 22.82 -1.11 19.22 -1.11 15.61 C-1.11 13.66 -1.12 11.7 -1.12 9.75 C-1.12 8.6 -1.12 7.46 -1.12 6.28 C-1.12 5.28 -1.12 4.28 -1.12 3.25 C-1 1 -1 1 0 0 Z " fill="#9aa4a3" transform="translate(1,260)"/>
<path d="M0 0 C0 45.21 0 90.42 0 137 C-54.45 137 -108.9 137 -165 137 C-162.74 131.36 -162.74 131.36 -159.12 128.81 C-158.11 128.08 -158.11 128.08 -157.07 127.33 C-155 126 -155 126 -152.86 124.94 C-149.47 123.23 -147.18 120.19 -144.62 117.44 C-142 115 -142 115 -139.25 113.69 C-136.24 112.12 -134.55 110.74 -132.12 108.44 C-126.85 103.58 -120.93 100.08 -114.84 96.36 C-110.07 93.45 -105.54 90.26 -101 87 C-98.87 85.49 -96.73 83.99 -94.59 82.48 C-92.41 80.94 -90.23 79.41 -88.05 77.87 C-87.37 77.39 -86.7 76.91 -86 76.42 C-84.06 75.04 -82.13 73.65 -80.2 72.25 C-77.47 70.33 -74.71 68.7 -71.8 67.08 C-65.2 63.13 -59.93 58.12 -54.81 52.44 C-53.63 51.14 -52.45 49.85 -51.27 48.56 C-50.71 47.95 -50.16 47.34 -49.59 46.72 C-43.8 40.45 -43.8 40.45 -40.69 38.69 C-35.2 35.24 -30.94 30.14 -26.75 25.25 C-22.26 20.02 -17.32 15.24 -12.42 10.4 C-9.51 7.53 -6.62 4.65 -3.81 1.69 C-2 0 -2 0 0 0 Z " fill="#9aa4a3" transform="translate(1280,260)"/>
<path d="M0 0 C41.58 0 83.16 0 126 0 C126 42.57 126 85.14 126 129 C119 128 119 128 116.62 125.62 C115.74 124.42 114.87 123.21 114 122 C108.22 114.69 102.12 107.8 95.77 100.98 C91.49 96.39 87.4 91.65 83.33 86.86 C82.33 85.68 81.32 84.49 80.31 83.31 C79.8 82.71 79.29 82.11 78.76 81.49 C75.23 77.37 71.59 73.38 67.88 69.44 C62.96 64.2 58.55 58.72 54.25 52.97 C50.82 48.45 47.59 44.4 43 41 C43 40.34 43 39.68 43 39 C42.45 38.73 41.9 38.46 41.34 38.18 C25.36 30.12 25.36 30.12 21.06 24.44 C18.25 21.11 15.06 19.85 11.08 18.21 C5.29 15.63 1.86 11.97 -2 7 C-1.67 6.34 -1.34 5.68 -1 5 C-0.01 5 0.98 5 2 5 C1.34 3.35 0.68 1.7 0 0 Z " fill="#0F1F36" transform="translate(1154,0)"/>
<path d="M0 0 C2.13 0.94 2.13 0.94 4 2 C3.67 2.66 3.34 3.32 3 4 C2.01 4 1.02 4 0 4 C-0.1 4.6 -0.21 5.19 -0.31 5.81 C-1.11 8.36 -2.01 9.29 -3.98 11.06 C-4.59 11.61 -5.2 12.16 -5.82 12.73 C-6.78 13.57 -6.78 13.57 -7.75 14.44 C-9 15.56 -10.24 16.68 -11.48 17.81 C-12.09 18.35 -12.69 18.89 -13.31 19.45 C-15.61 21.56 -17.79 23.79 -20 26 C-22.84 28.55 -25.7 31.08 -28.57 33.6 C-30.77 35.77 -31.69 37.3 -33 40 C-34.48 40.49 -34.48 40.49 -36 41 C-37.78 42.72 -37.78 42.72 -39.5 44.81 C-40.09 45.5 -40.68 46.19 -41.28 46.89 C-42.41 48.28 -43.51 49.68 -44.57 51.12 C-46 53 -46 53 -48.38 55.31 C-50.38 57.37 -51.89 59.17 -53.5 61.5 C-55.72 64.7 -58.21 67.27 -61 70 C-62.51 71.66 -64.01 73.33 -65.5 75 C-68.58 78.44 -71.74 81.74 -75 85 C-79.92 90.36 -84.74 95.8 -89.39 101.41 C-91.13 103.13 -92.76 104.03 -95 105 C-95 105.99 -95 106.98 -95 108 C-96.72 109.98 -96.72 109.98 -99.06 112.19 C-101.95 114.97 -104.69 117.73 -107.25 120.81 C-112.31 126.71 -118.19 131.86 -124 137 C-124.55 137.49 -125.1 137.97 -125.67 138.48 C-129.76 142 -129.76 142 -132 142 C-132.3 134.58 -132.51 127.16 -132.66 119.74 C-132.72 117.22 -132.8 114.69 -132.91 112.17 C-133.73 91.71 -133.73 91.71 -130.83 87.17 C-127.7 84.2 -124.12 82.97 -120 82 C-118.52 81.5 -118.52 81.5 -117 81 C-116.67 80.01 -116.34 79.02 -116 78 C-113.62 76.12 -113.62 76.12 -110.44 74 C-109.24 73.19 -108.03 72.38 -106.83 71.57 C-105.88 70.93 -105.88 70.93 -104.92 70.29 C-101.8 68.2 -98.71 66.07 -95.62 63.94 C-94.98 63.49 -94.33 63.05 -93.66 62.59 C-88.52 59.06 -83.4 55.49 -78.28 51.93 C-69.58 45.86 -60.87 39.83 -52 34 C-49 32 -46 30 -43 28 C-40.99 26.66 -38.98 25.33 -36.96 24 C-32.06 20.76 -27.26 17.47 -22.56 13.94 C-7.7 3 -7.7 3 -2 3 C-2 2.34 -2 1.68 -2 1 C-1.34 0.67 -0.68 0.34 0 0 Z " fill="#aeb2b1" transform="translate(132,11)"/>
<path d="M0 0 C3.11 1.17 4.58 2.21 6.5 4.94 C6.32 12.44 2.71 20.43 0.32 27.52 C-0.29 29.31 -0.88 31.1 -1.47 32.89 C-6.45 47.97 -6.45 47.97 -9 52.75 C-10.34 55.61 -11.11 58.08 -11.88 61.12 C-12.84 64.86 -13.99 68.23 -15.66 71.7 C-19.29 79.52 -22.39 87.55 -25.56 95.56 C-35.88 121.63 -35.88 121.63 -38.5 122.94 C-38.62 123.73 -38.73 124.53 -38.86 125.35 C-39.75 130.35 -41.77 134.68 -43.81 139.31 C-44.2 140.22 -44.59 141.13 -45 142.06 C-47.04 146.76 -49.19 151.37 -51.51 155.94 C-53.38 159.72 -55.05 163.58 -56.75 167.44 C-60.45 175.73 -64.37 183.87 -68.5 191.96 C-69.56 194.06 -70.6 196.16 -71.64 198.27 C-71.99 198.99 -72.34 199.71 -72.71 200.45 C-73.38 201.81 -74.05 203.17 -74.71 204.54 C-76.71 208.58 -78.81 212.33 -81.5 215.94 C-82.16 215.94 -82.82 215.94 -83.5 215.94 C-83.71 216.6 -83.91 217.26 -84.12 217.94 C-86.01 222.05 -88.71 225.4 -91.5 228.94 C-92.82 228.28 -94.14 227.62 -95.5 226.94 C-95.04 223.47 -94.61 220.26 -93.5 216.94 C-93.18 215.63 -92.87 214.31 -92.56 213 C-91.84 210.06 -90.89 207.63 -89.5 204.94 C-89.15 203.27 -88.82 201.61 -88.5 199.94 C-88.17 199.61 -87.84 199.28 -87.5 198.94 C-87.22 196.46 -87.05 193.97 -86.88 191.48 C-86.49 188.87 -85.8 187.21 -84.5 184.94 C-82.53 181.23 -81.19 178.08 -80.5 173.94 C-80 172.95 -80 172.95 -79.5 171.94 C-78.84 171.94 -78.18 171.94 -77.5 171.94 C-77.23 171.24 -76.96 170.53 -76.69 169.81 C-75.5 166.94 -75.5 166.94 -73.94 164.12 C-72.69 161.36 -72.24 159.74 -71.94 156.81 C-71.56 153.48 -71.21 151.71 -69.5 148.94 C-69.17 148.28 -68.84 147.62 -68.5 146.94 C-67.84 146.94 -67.18 146.94 -66.5 146.94 C-66.35 146.31 -66.21 145.67 -66.05 145.02 C-64.02 136.93 -60.89 129.55 -57.5 121.94 C-56.45 119.5 -55.41 117.06 -54.38 114.62 C-53.88 113.48 -53.39 112.34 -52.88 111.16 C-52.02 109.14 -51.16 107.12 -50.3 105.09 C-49.96 104.28 -49.61 103.46 -49.25 102.62 C-48.96 101.93 -48.66 101.23 -48.36 100.51 C-47.5 98.94 -47.5 98.94 -45.5 97.94 C-45.36 96.89 -45.21 95.83 -45.06 94.75 C-44.48 90.79 -43.28 88.48 -41.5 84.94 C-40.89 83.21 -40.28 81.48 -39.71 79.74 C-33.95 62.14 -25.71 45.34 -17.66 28.69 C-14.57 22.24 -11.83 15.66 -9.24 8.99 C-5.57 -0.14 -5.57 -0.14 0 0 Z " fill="#9aa4a3" transform="translate(272.5,2.0625)"/>
<path d="M0 0 C3.8 1.07 5.49 3.43 7.44 6.69 C8.23 8.46 8.97 10.24 9.69 12.04 C12.29 18.41 15.13 24.65 18 30.9 C23.62 43.17 28.98 55.53 34.12 68 C34.57 69.07 34.57 69.07 35.03 70.17 C37.95 77.23 40.82 84.22 42.79 91.62 C43.52 93.94 44.51 95.97 45.62 98.12 C47.44 101.69 47.44 101.69 47.44 104.69 C48.1 104.69 48.76 104.69 49.44 104.69 C59.44 127.92 59.44 127.92 59.44 133.69 C60.1 134.02 60.76 134.35 61.44 134.69 C65.81 140.67 68.33 146.4 69.44 153.69 C69.75 155.2 69.75 155.2 70.06 156.75 C70.19 157.39 70.31 158.03 70.44 158.69 C71.1 158.69 71.76 158.69 72.44 158.69 C72.87 159.72 73.3 160.75 73.75 161.81 C74.77 164.19 75.84 166.49 77 168.81 C79.13 173.08 80.59 176.99 81.44 181.69 C81.94 183.97 82.55 185.96 83.44 188.12 C84.43 190.66 84.92 193.02 85.44 195.69 C86.31 198.43 87.25 201.14 88.2 203.86 C89.67 208.15 90.69 212.2 91.44 216.69 C92.1 217.68 92.76 218.67 93.44 219.69 C93.81 222.01 94.15 224.35 94.44 226.69 C94.77 227.68 95.1 228.67 95.44 229.69 C94.5 231.88 94.5 231.88 93.44 233.69 C89.24 229.72 86.27 226.19 84.44 220.69 C83.78 220.69 83.12 220.69 82.44 220.69 C82.21 220.14 81.97 219.6 81.74 219.04 C79.29 213.39 76.53 208.03 73.5 202.69 C70.97 198.19 70.97 198.19 69.72 195.96 C68.83 194.39 67.93 192.82 67.01 191.27 C66.55 190.49 66.09 189.7 65.62 188.89 C64.99 187.83 64.99 187.83 64.35 186.75 C63.32 184.41 63.3 182.97 63.5 180.44 C63.48 179.2 63.46 177.96 63.44 176.69 C60.99 174.43 60.99 174.43 59.1 173.16 C55.17 169.67 53.35 164.03 51.47 159.22 C50.33 156.43 49.01 153.8 47.62 151.12 C44.98 145.91 42.68 140.62 40.52 135.18 C39.45 132.51 39.45 132.51 37.44 129.69 C37.2 127.64 37.2 127.64 37.12 125.38 C36.75 121.28 35.71 119.48 32.84 116.46 C28.42 110.88 26.41 103.62 25.5 96.69 C24.72 90.8 22.52 86.26 19.68 81.09 C18.44 78.69 18.44 78.69 18.44 76.69 C17.78 76.69 17.12 76.69 16.44 76.69 C14.82 72.68 13.52 69.36 13 65.06 C12.67 61.61 12.67 61.61 10.57 58.93 C8.29 55.47 7.08 52.31 5.81 48.38 C5.41 47.14 5 45.91 4.59 44.64 C3.75 41.89 3.09 39.15 2.5 36.34 C1.41 31.25 -0.25 26.41 -2 21.5 C-2.3 20.64 -2.6 19.77 -2.91 18.88 C-4.52 14.31 -6.27 9.97 -8.56 5.69 C-3.44 0.92 -3.44 0.92 0 0 Z " fill="#0F1F36" transform="translate(1008.5625,1.3125)"/>
<path d="M0 0 C2.23 2.13 3.77 3.89 5.5 6.38 C5.97 7.01 6.44 7.65 6.92 8.3 C8.3 10.18 9.65 12.09 11 14 C11.71 14.98 12.42 15.97 13.16 16.98 C20.75 27.61 20.75 27.61 21.62 32.44 C20.86 36.81 19.63 37.92 16.2 40.53 C12.98 42.68 9.7 44.68 6.35 46.63 C0.38 50.11 -5.3 54.17 -10.8 58.38 C-14.24 60.91 -17.82 63.26 -21.4 65.6 C-24.85 67.92 -26.08 69.15 -28 73 C-46.48 73 -64.96 73 -84 73 C-81.76 68.53 -81.23 68.66 -76.92 67.04 C-74.54 65.75 -73.31 64.22 -71.62 62.12 C-69.13 59.04 -66.98 57.22 -63.44 55.44 C-55.4 51.3 -52.77 45.88 -49.99 37.52 C-48.21 32.99 -45.32 30.83 -41.31 28.31 C-38.4 27.16 -36.12 26.66 -33.06 26.19 C-27.74 25.19 -24.37 23.27 -21 19 C-19.92 16.83 -19.04 14.64 -18.17 12.39 C-14.37 4.63 -8.89 -1.1 0 0 Z " fill="#9aa4a3" transform="translate(1119,324)"/>
<path d="M0 0 C4.07 -0.11 7.31 -0.08 11.25 1.13 C18.59 3.07 26.64 2.18 34.17 2 C36.29 1.95 38.41 1.92 40.53 1.89 C41.78 1.86 43.04 1.83 44.33 1.8 C48.53 2.16 51.17 3.27 54.93 5.11 C54.62 8.26 54.27 9.77 52.04 12.07 C51.22 12.68 50.4 13.29 49.56 13.93 C48.22 14.94 48.22 14.94 46.85 15.98 C45.41 17.03 45.41 17.03 43.93 18.11 C42.93 18.87 41.93 19.63 40.89 20.41 C33.24 26.11 33.24 26.11 30.93 26.11 C30.44 27.6 30.44 27.6 29.93 29.11 C27.9 30.69 25.89 32.13 23.75 33.55 C23.18 33.93 22.62 34.32 22.03 34.71 C19.27 36.57 16.49 38.4 13.69 40.2 C11.36 41.81 9.84 43.16 8.06 45.3 C3.41 50.16 -2.56 52.96 -8.42 56.1 C-10.59 57.26 -12.42 58.38 -14.38 59.87 C-16.65 61.55 -18.31 61.34 -21.07 61.11 C-21.07 60.45 -21.07 59.79 -21.07 59.11 C-22.55 58.62 -22.55 58.62 -24.07 58.11 C-25.05 56.42 -25.05 56.42 -25.9 54.2 C-26.22 53.39 -26.54 52.57 -26.87 51.73 C-27.2 50.84 -27.54 49.96 -27.88 49.05 C-28.23 48.15 -28.58 47.25 -28.94 46.33 C-29.99 43.59 -31.03 40.85 -32.07 38.11 C-32.37 37.33 -32.66 36.54 -32.97 35.73 C-34.69 31.2 -36.38 26.66 -38.07 22.11 C-38.47 21.13 -38.47 21.13 -38.88 20.13 C-40.64 15.73 -41.5 11.9 -41.75 7.11 C-41.85 5.41 -41.85 5.41 -41.95 3.68 C-41.99 2.83 -42.03 1.98 -42.07 1.11 C-39.29 2.41 -37.06 3.86 -34.69 5.8 C-32.18 7.59 -31.3 8.1 -28.13 8.3 C-25.17 7.15 -23.89 6.15 -21.57 4.11 C-15.28 -0.91 -7.64 0.28 0 0 Z " fill="#9aa4a3" transform="translate(1178.06640625,288.88671875)"/>
<path d="M0 0 C1.06 3.91 0.91 6.2 -0.48 9.99 C-0.82 10.94 -1.15 11.88 -1.5 12.86 C-1.87 13.85 -2.24 14.85 -2.62 15.88 C-3.37 17.94 -4.12 20.01 -4.86 22.08 C-5.23 23.09 -5.6 24.1 -5.98 25.14 C-7.73 30.04 -9.31 34.99 -10.89 39.94 C-12.04 43.11 -13.47 46 -15 49 C-15.29 49.99 -15.58 50.98 -15.88 52 C-17.37 56 -18.86 58.07 -22 61 C-27.37 60.87 -31.08 58.46 -35.44 55.62 C-36.13 55.18 -36.82 54.74 -37.54 54.28 C-47.73 47.67 -57.75 40.91 -66.07 31.97 C-70.59 27.35 -75.7 24.33 -81.31 21.25 C-82.05 20.84 -82.79 20.43 -83.56 20 C-85.37 19 -87.18 18 -89 17 C-89 16.34 -89 15.68 -89 15 C-90.64 13.95 -92.3 12.95 -94 12 C-95 11 -95 11 -95.25 8.62 C-95 6 -95 6 -93.75 4.25 C-88.62 0.58 -81.24 1.82 -75.25 1.81 C-74.09 1.8 -72.94 1.79 -71.75 1.78 C-66.79 1.77 -62.17 1.77 -57.36 3.1 C-53.04 4.26 -51.83 3.08 -48 1 C-44.53 0.6 -41.18 0.41 -38 2 C-36.4 2.08 -34.79 2.14 -33.19 2.19 C-29.36 2.52 -27.38 2.96 -24.88 5.94 C-23 9 -23 9 -23 11 C-18.05 11.5 -18.05 11.5 -13 12 C-12.63 9.87 -12.63 9.87 -12.25 7.69 C-11.59 4.79 -11.21 3.26 -9.31 0.94 C-6.14 -0.35 -3.38 -0.2 0 0 Z " fill="#9aa4a3" transform="translate(145,289)"/>
<path d="M0 0 C4.18 0.37 6.15 1.88 9.22 4.63 C11.25 6.2 13.29 7.17 15.62 8.24 C21.04 10.89 25.67 14.21 30.44 17.88 C36.19 22.26 42 26.34 48.13 30.18 C53.21 33.4 58.16 36.8 63.12 40.19 C64.21 40.93 65.29 41.66 66.41 42.42 C73.59 47.32 80.72 52.27 87.79 57.33 C94.41 62.11 94.41 62.11 102 65 C102 78.86 102 92.72 102 107 C97.32 105.13 95.69 104.05 92.31 100.61 C91.45 99.73 90.59 98.86 89.7 97.96 C88.81 97.04 87.92 96.13 87 95.19 C86.11 94.28 85.22 93.38 84.3 92.45 C82.64 90.76 80.98 89.07 79.32 87.37 C77.66 85.68 75.99 84 74.31 82.33 C72.29 80.3 70.62 78.3 68.94 76 C64.9 70.71 60.39 65.93 55.86 61.07 C53.62 58.68 51.44 56.24 49.31 53.75 C45.44 49.27 41.22 45.15 37 41 C35.67 39.67 34.33 38.33 33 37 C32.36 36.36 31.72 35.72 31.06 35.06 C30.38 34.38 29.7 33.7 29 33 C28.3 32.3 27.6 31.6 26.88 30.88 C24.62 28.63 22.39 26.36 20.15 24.08 C18.75 22.66 17.34 21.24 15.94 19.81 C15.23 19.09 14.52 18.36 13.79 17.62 C13.11 16.93 12.42 16.23 11.71 15.52 C10.79 14.58 10.79 14.58 9.84 13.62 C8.06 11.91 8.06 11.91 5.8 10.91 C5.2 10.61 4.61 10.31 4 10 C3.86 9.34 3.71 8.68 3.56 8 C3.38 7.34 3.19 6.68 3 6 C0.51 4.7 0.51 4.7 -2 4 C-1.34 2.68 -0.68 1.36 0 0 Z " fill="#aeb2b1" transform="translate(1178,11)"/>
<path d="M0 0 C1.32 0.33 2.64 0.66 4 1 C4 2.65 4 4.3 4 6 C4.74 5.77 5.48 5.55 6.25 5.31 C9 5 9 5 11.31 6.44 C11.87 6.95 12.43 7.47 13 8 C12.67 9.65 12.34 11.3 12 13 C10.02 13 8.04 13 6 13 C5.67 13.99 5.34 14.98 5 16 C11.27 15.67 17.54 15.34 24 15 C24.99 16.65 25.98 18.3 27 20 C26.31 22.25 26.31 22.25 25 24 C22.74 25.13 21.25 25.16 18.75 25.31 C14.17 25.77 11.82 27.4 8 30 C3.4 32.04 -0.79 33.76 -5.71 32.07 C-7.93 30.83 -9.98 29.53 -12 28 C-11.66 29.89 -11.66 29.89 -11.31 31.81 C-10.83 34.47 -10.69 35.51 -12.16 37.81 C-14 39 -14 39 -16.48 38.86 C-17.82 38.52 -17.82 38.52 -19.19 38.19 C-20.09 37.97 -20.99 37.76 -21.92 37.54 C-22.61 37.36 -23.29 37.18 -24 37 C-24.08 37.95 -24.16 38.9 -24.25 39.88 C-25 43 -25 43 -26.81 44.5 C-29.67 45.15 -30.41 44.3 -33 43 C-37.2 42.73 -39.94 42.55 -43.81 44.19 C-48.89 45.48 -53.26 44.02 -58 42 C-60.96 39.04 -61.13 36.7 -61.19 32.69 C-61.13 31.47 -61.06 30.25 -61 29 C-59.68 29 -58.36 29 -57 29 C-56.34 30.32 -55.68 31.64 -55 33 C-52.67 33.5 -52.67 33.5 -50 33 C-46.23 28.77 -44.75 23.83 -43.03 18.49 C-41.71 15.3 -40.24 13.64 -37.19 12.06 C-33.69 11.96 -31.71 13.95 -29 16 C-28.67 16.33 -28.34 16.66 -28 17 C-26.33 17.04 -24.67 17.04 -23 17 C-21.57 13.67 -20.69 10.54 -20 7 C-19 6 -19 6 -16.19 5.69 C-13 6 -13 6 -10.69 7.69 C-8.86 10.2 -8.34 11.94 -8 15 C-5.69 15.33 -3.38 15.66 -1 16 C-1.35 15.34 -1.7 14.68 -2.06 14 C-3.35 9.87 -2.82 7.25 -2 3 C-1.34 2.01 -0.68 1.02 0 0 Z " fill="#0F1F36" transform="translate(1244,117)"/>
<path d="M0 0 C1.98 0 3.96 0 6 0 C6.33 0.66 6.66 1.32 7 2 C5.79 2.68 5.79 2.68 4.56 3.38 C1.91 4.75 1.91 4.75 1 7 C0.79 8.79 0.63 10.59 0.49 12.38 C0.39 13.47 0.29 14.55 0.19 15.67 C-0.02 17.95 -0.2 20.23 -0.37 22.51 C-1.16 30.55 -3.18 34.5 -9 40 C-10.49 41.83 -11.97 43.66 -13.44 45.5 C-16.18 48.89 -18.97 52.05 -22.12 55.06 C-26.45 59.25 -29.64 64.04 -33 69 C-35.46 72.55 -37.71 75.01 -41.72 76.74 C-46.37 78.99 -49.5 82.08 -53 85.81 C-54.22 87.07 -55.45 88.33 -56.68 89.59 C-57.25 90.18 -57.83 90.78 -58.42 91.39 C-62.95 96.02 -67.5 99.75 -73.06 103.06 C-78.97 106.68 -83.76 111.21 -88.7 116.03 C-94.41 121.56 -98.8 125.28 -107 126 C-112.49 126.65 -115.56 127.6 -120 131 C-121.38 131.5 -122.78 131.96 -124.19 132.38 C-128.73 133.79 -132.63 135.85 -136.76 138.18 C-140.74 140.42 -144.77 142.55 -148.81 144.69 C-149.53 145.07 -150.25 145.45 -150.99 145.84 C-152.37 146.57 -153.75 147.29 -155.14 148.01 C-156.71 148.84 -158.23 149.77 -159.74 150.71 C-165.74 153.08 -172.31 152.76 -178.7 153 C-184.98 153.35 -189.19 154.08 -194.32 157.79 C-196.55 159.4 -198.85 160.25 -201.44 161.12 C-202.37 161.44 -203.31 161.76 -204.27 162.09 C-205.17 162.39 -206.07 162.69 -207 163 C-207.79 163.28 -208.58 163.56 -209.39 163.84 C-213.9 165.42 -218.34 166.56 -223.05 167.38 C-225.49 168.16 -226.47 168.95 -228 171 C-228.33 172.65 -228.66 174.3 -229 176 C-245.17 176 -261.34 176 -278 176 C-277.5 174.02 -277.5 174.02 -277 172 C-262.39 165.36 -243.15 164.48 -227.32 165.16 C-223.52 164.98 -221.43 164.03 -218.12 162.19 C-213.91 159.94 -209.94 158.21 -205.38 156.84 C-202.45 155.8 -199.78 154.4 -197 153 C-188.36 148.92 -179.13 147.49 -169.66 146.73 C-159.72 145.79 -152.44 141.13 -144.01 136.16 C-140.7 134.25 -137.26 132.72 -133.75 131.21 C-131.66 130.29 -129.6 129.31 -127.56 128.29 C-120.97 125.01 -114.77 122.51 -107.56 120.94 C-98.49 118.91 -93.97 115.04 -87.62 108.5 C-83.91 104.69 -80.17 102.07 -75.55 99.45 C-68.59 95.49 -63.09 91.61 -58.55 84.98 C-55.17 80.67 -50.42 77.68 -45.96 74.58 C-38.07 68.97 -32.06 61.65 -26.39 53.86 C-25 52 -23.53 50.25 -22 48.5 C-19.33 45.44 -16.91 42.25 -14.52 38.96 C-13.01 37.02 -11.36 35.36 -9.62 33.62 C-6.49 30.03 -6.74 27.42 -7.04 22.82 C-6.92 15.01 -3.26 7.02 0 0 Z " fill="#9aa4a3" transform="translate(1065,221)"/>
<path d="M0 0 C2.48 0.98 3.75 1.58 5.12 3.92 C5.41 4.67 5.7 5.42 6 6.19 C7.2 9.2 8.45 11.73 10.31 14.38 C12.13 18.28 12.03 19.14 11.38 23.19 C10.54 29.26 12.44 32.66 15.38 37.88 C17.08 41.15 18.08 44.26 19.06 47.81 C20.38 52.39 21.79 55.7 24.78 59.39 C26.59 61.77 27.75 64.41 29.04 67.1 C30.07 69.23 30.07 69.23 32 71.94 C33.68 74.51 34.78 76.75 35.94 79.56 C38.37 85.19 41.98 88.28 46.88 91.81 C51.26 95.03 54.55 98.83 58 103 C61.14 106.66 64.28 110.28 67.69 113.69 C70 116 70 116 71.69 118.38 C76.91 124.31 83.61 128 90.84 130.97 C95.58 133.23 99.6 136.71 103.44 140.25 C106.02 142.02 107.31 142.35 110.31 142.88 C113.93 143.54 115.99 144.52 118.81 146.88 C122.93 150.27 127.19 151.64 132.27 153.14 C135 154 135 154 137 155.03 C139.51 156.25 141.96 156.69 144.69 157.25 C149.84 158.48 153.55 160.24 157.77 163.4 C163.99 167.86 168.37 169.58 175.94 170.06 C181.32 170.43 185.63 171.14 190.68 173.2 C195.9 175 201.44 175.71 206.88 176.62 C208.8 176.96 208.8 176.96 210.76 177.29 C218.75 178.61 226.62 179.59 234.72 179.72 C238.32 179.79 240.93 180.04 244 182 C244 182.66 244 183.32 244 184 C227.83 184 211.66 184 195 184 C194.01 181.52 194.01 181.52 193 179 C187.7 175.13 181.35 174.76 175 174.56 C167.9 174.32 162.97 172.82 157 169 C151.26 165.39 146.15 162.48 139.58 160.71 C131.59 158.52 124.53 155.89 118.2 150.46 C115.55 148.7 113.37 148.32 110.25 147.75 C104.75 146.49 101.77 144.61 97.79 140.7 C94.69 137.75 91.08 135.92 87.17 134.19 C73.29 127.87 61.09 114.51 51.5 102.88 C47.61 98.23 42.87 94.45 38.24 90.57 C33.16 86.28 30.12 83.08 28.25 76.56 C25.71 68.57 21.71 61.47 17.38 54.32 C15.97 51.94 14.88 49.51 13.82 46.95 C12.91 44.79 11.96 42.64 11 40.5 C10.66 39.73 10.33 38.97 9.98 38.18 C9.14 36.31 8.2 34.49 7.25 32.69 C5.74 28.22 5.9 24.54 6.19 19.87 C5.96 16.45 4.84 14.84 3 12 C2.3 9.65 2.3 9.65 1.88 7.38 C1.37 4.8 0.83 2.5 0 0 Z " fill="#101C33" transform="translate(212,213)"/>
<path d="M0 0 C3.77 1.89 6.58 4.32 9.55 7.28 C10.39 8.12 11.24 8.97 12.11 9.84 C13.42 11.15 13.42 11.15 14.75 12.5 C15.61 13.35 16.46 14.2 17.34 15.07 C21.61 19.35 25.64 23.69 29.41 28.41 C33.98 34.1 38.95 39.25 44.12 44.38 C45.64 45.89 47.14 47.4 48.65 48.92 C53.51 53.78 58.34 58.11 64 62 C65.44 64.81 65.44 64.81 66 67 C62.88 67.98 61.43 68.18 58.38 66.88 C57.45 66.3 56.52 65.72 55.56 65.12 C54.5 64.47 53.43 63.81 52.33 63.13 C50.68 62.08 50.68 62.08 49 61 C47.49 60.04 47.49 60.04 45.95 59.05 C44.32 58.01 42.69 56.96 41.07 55.91 C35 51.98 28.88 48.14 22.75 44.31 C21.74 43.68 20.74 43.05 19.7 42.4 C14.97 39.45 10.22 36.51 5.45 33.61 C4.67 33.13 3.88 32.65 3.07 32.15 C0.91 30.87 0.91 30.87 -2 30 C-2 20.43 -2 10.86 -2 1 C-1.34 0.67 -0.68 0.34 0 0 Z " fill="#aeb2b1" transform="translate(2,264)"/>
<path d="M0 0 C0.99 0.33 1.98 0.66 3 1 C3 10.57 3 20.14 3 30 C-0.3 31.65 -3.6 33.3 -7 35 C-9.63 36.61 -12.19 38.23 -14.75 39.94 C-16.22 40.9 -17.69 41.87 -19.16 42.83 C-19.93 43.34 -20.71 43.85 -21.51 44.37 C-28.8 49.13 -36.16 53.77 -43.52 58.43 C-45.72 59.82 -47.92 61.23 -50.11 62.63 C-51.26 63.36 -52.41 64.09 -53.56 64.81 C-54.51 65.42 -55.46 66.02 -56.44 66.64 C-59.01 68 -61.14 68.6 -64 69 C-64.33 68.01 -64.66 67.02 -65 66 C-62.35 61.05 -58.92 57.65 -54 55 C-52.31 53.36 -50.65 51.69 -49 50 C-47.35 48.35 -45.69 46.7 -44.04 45.06 C-39.31 40.35 -34.59 35.63 -29.87 30.92 C-27.01 28.07 -24.16 25.23 -21.31 22.38 C-18.54 19.62 -15.77 16.86 -13 14.1 C-11.95 13.05 -10.9 12 -9.84 10.95 C-8.37 9.49 -6.91 8.02 -5.44 6.55 C-4.61 5.72 -3.77 4.89 -2.91 4.03 C-0.95 2.14 -0.95 2.14 0 0 Z " fill="#192437" transform="translate(1277,264)"/>
<path d="M0 0 C1.54 3.97 0.41 6.85 -0.8 10.81 C-1 11.46 -1.19 12.11 -1.4 12.78 C-1.81 14.16 -2.23 15.53 -2.66 16.9 C-3.31 18.99 -3.94 21.08 -4.58 23.18 C-7.96 34.27 -7.96 34.27 -10 38 C-10.93 37.65 -11.86 37.3 -12.81 36.94 C-17.22 35.64 -21.24 36.23 -25.74 36.81 C-26.49 36.87 -27.23 36.93 -28 37 C-28.5 36.5 -28.5 36.5 -29 36 C-32.27 35.63 -33.83 35.91 -36.75 37.5 C-40.96 39.44 -44.44 39.27 -49 39 C-49 36 -49 36 -47 33.12 C-44.96 29.94 -44.39 28.67 -45 25 C-45.66 24.34 -46.32 23.68 -47 23 C-46.01 21.02 -45.02 19.04 -44 17 C-41.53 17.99 -41.53 17.99 -39 19 C-39 19.66 -39 20.32 -39 21 C-37.02 20.01 -35.04 19.02 -33 18 C-33 17.34 -33 16.68 -33 16 C-30.36 16.33 -27.72 16.66 -25 17 C-24.34 18.98 -23.68 20.96 -23 23 C-21.54 23.17 -20.08 23.33 -18.62 23.5 C-17.41 23.64 -17.41 23.64 -16.16 23.78 C-14.03 24.03 -14.03 24.03 -12 24 C-12 23.34 -12 22.68 -12 22 C-12.66 21.34 -13.32 20.68 -14 20 C-14.5 18.82 -14.99 17.65 -15.5 16.44 C-16.59 12.94 -16.59 12.94 -19 12 C-17.63 7.15 -15.5 5.63 -11.19 3.19 C-10.15 2.58 -9.11 1.98 -8.04 1.36 C-5.03 0.01 -3.25 -0.31 0 0 Z " fill="#9aa4a3" transform="translate(175,211)"/>
<path d="M0 0 C-2.19 2.56 -2.19 2.56 -5 5 C-5.8 4.81 -6.61 4.63 -7.44 4.44 C-8.28 4.29 -9.13 4.15 -10 4 C-12.3 5.74 -14.15 7.8 -16 10 C-15.07 9.69 -14.14 9.38 -13.19 9.06 C-6.62 6.88 -6.62 6.88 -3 8 C-5.69 11.01 -8.44 12.89 -11.96 14.82 C-15.21 16.7 -18.22 18.91 -21.27 21.09 C-24.09 23.06 -26.94 24.97 -29.81 26.88 C-34.01 29.66 -38.18 32.5 -42.31 35.38 C-47.07 38.68 -51.86 41.92 -56.69 45.12 C-67.3 52.03 -67.3 52.03 -77.31 59.75 C-80 62 -80 62 -82.56 63.5 C-85.5 65.31 -87.59 67.53 -90 70 C-91.97 71.71 -93.98 73.35 -96 75 C-96 74.01 -96 73.02 -96 72 C-101.86 75.38 -107.38 79.01 -112 84 C-113.32 83.34 -114.64 82.68 -116 82 C-115.78 78.22 -115.11 77.1 -112.31 74.44 C-109.31 72.14 -106.17 70.06 -103 68 C-102.34 67.44 -101.68 66.89 -101 66.31 C-99 65 -99 65 -96.23 64.66 C-92.4 63.88 -90.35 62.43 -87.25 60.06 C-86.31 59.35 -85.36 58.64 -84.39 57.91 C-81.19 55.35 -79.8 54 -79 50 C-76.69 49.67 -74.38 49.34 -72 49 C-72 48.34 -72 47.68 -72 47 C-71.34 47 -70.68 47 -70 47 C-69.84 46.36 -69.67 45.72 -69.5 45.06 C-69.01 44.38 -68.51 43.7 -68 43 C-66.08 42.83 -64.15 42.67 -62.23 42.54 C-58.6 41.66 -56.46 39.26 -53.86 36.69 C-52 35 -52 35 -49.83 34.03 C-49.22 33.69 -48.62 33.35 -48 33 C-47.66 31.67 -47.33 30.33 -47 29 C-45.18 27.54 -45.18 27.54 -42.88 26.19 C-39.72 24.21 -37.19 22.32 -34.69 19.56 C-30.97 15.63 -26.59 13.25 -21.87 10.68 C-17.85 8.33 -14.7 5.85 -11.75 2.25 C-7.91 -0.89 -4.78 -0.47 0 0 Z " fill="#101C33" transform="translate(1222,312)"/>
<path d="M0 0 C2.68 4.01 2.68 4.01 3 7 C2.41 9.5 1.75 11.83 0.94 14.25 C0.71 14.96 0.48 15.66 0.24 16.39 C-2.03 23.29 -4.57 30.08 -7.18 36.85 C-8.01 39.03 -8.81 41.22 -9.6 43.41 C-14 55.48 -19.09 67.21 -24.31 78.94 C-24.67 79.74 -25.02 80.54 -25.39 81.36 C-26.42 83.67 -27.45 85.97 -28.49 88.28 C-28.8 88.97 -29.11 89.66 -29.43 90.37 C-31.19 94.29 -33.05 98.16 -35 102 C-35.66 101.67 -36.32 101.34 -37 101 C-36.94 101.74 -36.88 102.49 -36.81 103.25 C-37.03 106.51 -37.66 107.74 -40 110 C-41.32 110 -42.64 110 -44 110 C-44 108.02 -44 106.04 -44 104 C-43.34 104 -42.68 104 -42 104 C-41.87 103.35 -41.74 102.71 -41.6 102.04 C-39.34 91.98 -35.5 82.65 -31.62 73.12 C-30.91 71.35 -30.2 69.58 -29.48 67.81 C-24.09 54.49 -18.47 41.28 -12.67 28.13 C-10.99 24.31 -9.37 20.48 -7.84 16.59 C-6.33 12.75 -4.63 9.06 -2.75 5.38 C-1.97 3.84 -1.97 3.84 -1.17 2.27 C-0.79 1.52 -0.4 0.77 0 0 Z " fill="#aeb2b1" transform="translate(252,46)"/>
<path d="M0 0 C5.7 3.39 5.7 3.39 7 6 C7 8.48 6.16 9.82 5 12 C5 13.32 5 14.64 5 16 C6.75 16.79 6.75 16.79 9 17 C10.67 16.01 12.34 15.01 14 14 C16.81 13.81 16.81 13.81 19 14 C19 14.99 19 15.98 19 17 C18.34 17.66 17.68 18.32 17 19 C16.62 22.73 16.85 23.78 19 27 C18.03 27.39 17.06 27.78 16.06 28.19 C12.82 29.68 12.82 29.68 12 32.56 C12 33.37 12 34.17 12 35 C13.88 37.31 13.88 37.31 16.94 37.25 C20.17 37.24 20.17 37.24 23 35 C23.31 34.15 23.62 33.31 23.94 32.44 C24.29 31.63 24.64 30.83 25 30 C27.12 29.19 27.12 29.19 29 29 C32.03 34.04 32.28 37.29 32 43 C32 43.99 32 44.98 32 46 C28.9 49.49 25.28 52.79 20.5 53.23 C18.28 52.96 16.18 52.52 14 52 C13.01 52 12.02 52 11 52 C10.67 52.66 10.34 53.32 10 54 C7.92 48.65 6.2 43.36 4.75 37.81 C3.36 32.57 1.84 27.42 0.05 22.3 C-0.28 21.36 -0.61 20.41 -0.95 19.44 C-1.6 17.59 -2.26 15.74 -2.94 13.91 C-3.24 13.06 -3.53 12.22 -3.84 11.35 C-4.11 10.61 -4.38 9.86 -4.66 9.1 C-5.1 6.4 -4.45 5.27 -3 3 C-1.38 1.25 -1.38 1.25 0 0 Z " fill="#9aa4a3" transform="translate(1106,198)"/>
<path d="M0 0 C2.43 2.43 3.02 4.45 4.19 7.69 C5.98 12.5 7.94 17.11 10.17 21.74 C14.49 30.85 18.27 40.16 22.06 49.5 C22.75 51.18 23.44 52.87 24.13 54.55 C25.46 57.82 26.79 61.09 28.12 64.36 C29.34 67.39 30.58 70.4 31.83 73.42 C32.39 74.77 32.94 76.12 33.5 77.47 C33.98 78.64 34.47 79.81 34.97 81.01 C36 84 36 84 36 88 C36.66 88 37.32 88 38 88 C38.87 90.43 39.72 92.87 40.56 95.31 C40.93 96.35 40.93 96.35 41.31 97.4 C43.11 102.66 43.11 102.66 42 106 C40.02 102.53 40.02 102.53 38 99 C37.34 99 36.68 99 36 99 C33.09 93.44 33.09 93.44 32.56 90.94 C31.73 88.07 29.92 86.26 28 84 C25.42 80.86 23.85 77.7 22.26 73.98 C21.75 72.79 21.24 71.6 20.71 70.38 C20.45 69.76 20.19 69.14 19.92 68.5 C19.14 66.66 18.35 64.83 17.56 62.99 C14.47 55.75 11.66 48.47 9.07 41.04 C8.12 38.33 7.09 35.66 6 33 C5.33 31.33 4.66 29.67 4 28 C3.56 26.91 3.13 25.82 2.68 24.7 C-0.15 17.3 -2.53 10.02 -2 2 C-1.34 1.34 -0.68 0.68 0 0 Z " fill="#aeb2b1" transform="translate(1030,51)"/>
<path d="M0 0 C0.99 0.66 1.98 1.32 3 2 C5.68 2.17 5.68 2.17 8.56 2 C11.5 1.88 11.5 1.88 14 2 C14.66 2.66 15.32 3.32 16 4 C18.72 5.29 21.08 6.01 24.06 6.5 C26.81 6.97 28.6 7.63 31 9 C31.66 9.33 32.32 9.66 33 10 C33.41 10.74 33.83 11.49 34.25 12.25 C35.91 15.23 35.91 15.23 39.19 17.31 C42 20 42 20 42.42 22.06 C42.44 24.25 42.44 24.25 42 28 C41.51 28.5 41.51 28.5 41 29 C35.75 28.57 30.67 27.52 26 25 C24.81 22.94 24.81 22.94 24 21 C21.44 19.69 19.21 19.04 16.38 18.56 C14 18 14 18 12.63 16.46 C11.1 14.79 11.1 14.79 8.88 14.81 C8.11 14.87 7.35 14.94 6.56 15 C2.55 15.15 1.08 14.65 -2 12 C-3.03 11.84 -4.06 11.67 -5.12 11.5 C-6.07 11.34 -7.02 11.17 -8 11 C-10.31 7.53 -10.51 6.08 -10 2 C-6.94 -1.65 -4.37 -1.21 0 0 Z " fill="#101C33" transform="translate(1189,224)"/>
<path d="M0 0 C2.57 1.29 2.9 2.22 3.88 4.94 C4.12 6.15 4.37 7.37 4.62 8.62 C6.09 14.85 10.08 19.85 14.19 24.62 C16.55 29.27 16.41 33.64 16.5 38.79 C16.64 41.85 16.64 41.85 18.03 43.77 C21.36 45.87 25.15 46.25 28.96 47 C33.88 48.59 36.03 51.79 38.31 56.25 C39.85 59.17 41.44 61.74 43.5 64.31 C46.26 67.98 47.04 71.84 47.91 76.29 C49.99 82 55.06 84.91 60.06 87.94 C60.91 88.46 60.91 88.46 61.78 88.99 C65.19 91.03 68.63 92.8 72.25 94.44 C77.9 97.19 82.28 101.13 84.75 107.02 C85.84 110.98 86.08 114.85 85.88 118.94 C84.3 116.03 83.38 113.27 82.56 110.06 C80.95 104.62 79.09 100.9 74.05 97.83 C72.02 96.79 69.97 95.85 67.88 94.94 C58.65 90.82 48.86 85.64 44.88 75.94 C44.61 74.68 44.34 73.42 44.06 72.12 C43.05 67.4 40.39 64.09 37.54 60.27 C35.88 57.94 35.88 57.94 34.25 54.5 C32.51 51.26 31.25 50.4 27.88 48.94 C25.61 48.44 23.35 48.01 21.06 47.66 C18.07 46.67 16.76 45.45 14.88 42.94 C14.51 40.09 14.51 40.09 14.56 36.88 C14.22 29.33 11.34 24.84 6.88 18.94 C3.23 14.01 1.88 9.9 0.88 3.94 C-0.44 3.61 -1.76 3.28 -3.12 2.94 C-6.67 8.53 -9.84 14.25 -12.75 20.19 C-16.1 26.97 -19.56 33.7 -23.12 40.38 C-23.6 41.29 -24.07 42.2 -24.56 43.14 C-27.57 48.73 -30.96 53.27 -35.28 57.91 C-37.66 60.52 -39.52 63.22 -41.44 66.19 C-42.39 67.65 -42.39 67.65 -43.36 69.14 C-43.94 70.06 -44.53 70.99 -45.12 71.94 C-45.7 72.82 -46.27 73.7 -46.86 74.61 C-48.36 76.93 -48.36 76.93 -48.12 79.94 C-46.67 84.3 -44.32 86.82 -40.19 88.93 C-38.8 89.56 -37.41 90.2 -36.02 90.84 C-34.12 91.94 -34.12 91.94 -31.75 95 C-28.5 98.64 -25.88 99.22 -21.23 100.3 C-20.54 100.51 -19.84 100.72 -19.12 100.94 C-18.8 101.6 -18.47 102.26 -18.12 102.94 C-23.49 103.91 -27.98 103.97 -32.57 100.82 C-34.85 99.1 -37.02 97.28 -39.18 95.42 C-41.96 92.91 -41.96 92.91 -44.86 91.42 C-47.65 89.6 -48.33 88.15 -49.5 85.06 C-49.84 84.22 -50.18 83.38 -50.52 82.51 C-51.45 78.55 -50.8 76.08 -48.74 72.61 C-48.17 71.83 -47.59 71.05 -47 70.25 C-46.37 69.38 -45.74 68.52 -45.09 67.62 C-44.44 66.74 -43.79 65.85 -43.12 64.94 C-41.41 62.45 -39.7 59.95 -38 57.46 C-36.48 55.41 -34.92 53.58 -33.21 51.7 C-29.84 47.8 -27.56 43.59 -25.25 39 C-24.82 38.17 -24.4 37.35 -23.96 36.49 C-21.56 31.82 -19.21 27.11 -16.88 22.4 C-5.7 -0.17 -5.7 -0.17 0 0 Z " fill="#9aa4a3" transform="translate(186.125,278.0625)"/>
<path d="M0 0 C2.5 1.44 2.5 1.44 3.88 4.06 C4.66 8.29 4.36 11.23 3.5 15.44 C2.84 15.77 2.18 16.1 1.5 16.44 C0.36 15.97 0.36 15.97 -0.81 15.5 C-3.63 14.39 -5.51 14.35 -8.5 14.44 C-8.05 16.9 -7.59 19.36 -7.12 21.81 C-7 22.51 -6.87 23.21 -6.74 23.93 C-6 28.11 -6 28.11 -3.5 31.44 C-3.06 33.88 -3.06 33.88 -3.5 36.44 C-7.64 40.3 -13.11 40.13 -18.5 40.44 C-20.72 35.82 -21.88 32.67 -21.5 27.44 C-20.84 27.44 -20.18 27.44 -19.5 27.44 C-17.72 24.37 -17.34 22.21 -17.31 18.69 C-16.81 12.54 -13.83 9.56 -9.5 5.44 C-8.56 4.46 -7.62 3.48 -6.69 2.5 C-3.26 -0.73 -3.26 -0.73 0 0 Z " fill="#101C33" transform="translate(1088.5,98.5625)"/>
<path d="M0 0 C2.26 3.38 2.2 4.44 2.06 8.38 C1.97 11.34 1.98 13.88 2.56 16.79 C2.7 17.52 2.85 18.25 3 19 C2 20 2 20 -0.81 20.38 C-4 20 -4 20 -5.88 17.81 C-6.93 16.42 -6.93 16.42 -8 15 C-11.35 12.38 -14.59 10.32 -18.75 9.38 C-21.28 9.83 -21.28 9.83 -22.88 12.56 C-23.58 13.37 -24.28 14.17 -25 15 C-27.34 14.68 -29.67 14.34 -32 14 C-34.43 14.81 -36.61 15.84 -38.89 16.99 C-40.92 17.96 -42.8 18.53 -45 19 C-45 17.35 -45 15.7 -45 14 C-44.38 13.81 -43.76 13.63 -43.12 13.44 C-39.97 11.3 -39.95 8.59 -39 5 C-37.83 3.26 -37.83 3.26 -36 2 C-33.11 1.89 -33.11 1.89 -29.75 2.25 C-28.01 2.42 -28.01 2.42 -26.24 2.6 C-23.79 2.9 -21.37 3.26 -18.94 3.69 C-15.72 4.03 -14.65 3.74 -12 2 C-8.01 -0.56 -4.63 -0.37 0 0 Z " fill="#9aa4a3" transform="translate(45,234)"/>
<path d="M0 0 C0.74 0.04 1.48 0.09 2.25 0.13 C6.25 1.41 8.63 4.07 10.55 7.78 C11.49 9.98 12.38 12.2 13.25 14.44 C16.3 21.78 19.7 26.83 25.03 32.74 C28.13 36.36 30.34 40.42 32.56 44.62 C33.12 45.67 33.12 45.67 33.7 46.74 C36.07 51.37 37.47 55.79 38.56 60.88 C34.66 58.56 33.25 56.57 32.12 52.31 C29.91 43.95 25.91 37.26 20.19 30.81 C15.54 25.41 12.95 19.65 10.39 13.07 C8.54 8.47 7.02 5.48 2.56 2.88 C-1.47 2 -5.26 2.46 -9.12 3.81 C-11.33 5.78 -12.5 7.4 -14.06 9.88 C-19.55 18.53 -27 25.23 -35.64 30.63 C-38.13 32.35 -39.12 34.17 -40.44 36.88 C-41.47 38.43 -42.51 39.97 -43.56 41.5 C-47.64 47.44 -47.64 52.34 -47.86 59.43 C-48.54 63.46 -49.45 65.11 -52.44 67.88 C-55.17 68.81 -55.17 68.81 -58.19 69.31 C-64.21 70.6 -67.89 72.81 -72.44 76.88 C-75.65 79.66 -78.58 81.41 -82.44 83.12 C-86.14 84.89 -87.98 86.17 -89.88 89.81 C-92.81 95.39 -97.98 97.22 -103.44 99.88 C-104.28 100.41 -105.11 100.94 -105.98 101.49 C-109.2 103.31 -112.11 103.55 -115.74 103.96 C-118.56 104.92 -119.42 105.72 -121.49 107.75 C-126.19 112.01 -131.68 112.81 -137.75 114.06 C-139.92 114.52 -142.08 115 -144.24 115.48 C-145.19 115.68 -146.14 115.88 -147.12 116.08 C-149.78 116.73 -149.78 116.73 -151.44 119.88 C-152.1 119.88 -152.76 119.88 -153.44 119.88 C-153.16 117.98 -153.16 117.98 -152.44 115.88 C-146.4 113.08 -140.11 111.79 -133.62 110.5 C-127.9 109.26 -123.97 106.97 -119.43 103.21 C-116.88 101.5 -114.57 101.05 -111.56 100.44 C-106.73 99.32 -103.43 97.91 -99.44 94.88 C-97.92 94.29 -97.92 94.29 -96.38 93.69 C-93.13 91.69 -92.74 90.77 -91.19 87.44 C-89.25 83.61 -87.95 82.29 -83.88 80.94 C-83.01 80.66 -82.15 80.39 -81.26 80.11 C-76.56 78.06 -73.05 74.54 -69.3 71.12 C-65.25 67.95 -61.72 67.05 -56.69 66.38 C-53.36 66.19 -53.36 66.19 -51.44 63.88 C-51.21 61.84 -51.08 59.8 -51 57.75 C-50.47 49.51 -48.75 44.31 -43.44 37.88 C-42.91 36.59 -42.39 35.3 -41.88 34 C-39.58 29.18 -35.87 27.42 -31.39 24.78 C-23.98 19.99 -18.26 13.34 -13.79 5.79 C-11.81 2.99 -9.7 1.32 -6.46 0.18 C-4.23 -0.16 -2.26 -0.18 0 0 Z " fill="#9aa4a3" transform="translate(1093.4375,277.125)"/>
<path d="M0 0 C0.47 0.41 0.94 0.82 1.43 1.24 C2.05 1.78 2.67 2.32 3.31 2.88 C4.23 3.68 4.23 3.68 5.18 4.49 C7.13 6.16 7.13 6.16 10 8 C10.33 7.34 10.66 6.68 11 6 C11.99 6.66 12.98 7.32 14 8 C15.32 8 16.64 8 18 8 C20.1 9.57 22 11.12 23.94 12.88 C27.44 16.02 30.54 18.36 35 20 C35.5 20.99 35.5 20.99 36 22 C36.99 22.33 37.98 22.66 39 23 C39.56 23.57 40.13 24.14 40.71 24.73 C43.73 27.73 47.06 29.96 50.62 32.25 C51.34 32.71 52.05 33.16 52.78 33.64 C57.8 36.69 61.06 37.55 66.95 36.85 C69 37 69 37 70.8 38.5 C72.4 40.59 73.72 42.7 75 45 C75.41 45.69 75.82 46.38 76.25 47.09 C77.2 48.71 78.11 50.35 79 52 C78.01 53.32 77.02 54.64 76 56 C75.6 55.6 75.19 55.2 74.78 54.79 C70.44 50.73 65.92 47.64 60.81 44.69 C55.32 41.5 50.32 38.06 45.35 34.09 C39.33 29.35 32.92 25.19 26.51 21 C21.75 17.88 17.13 14.68 12.65 11.17 C10.93 9.85 10.93 9.85 8.38 9 C4.87 7.52 2.35 4.97 0 2 C0 1.34 0 0.68 0 0 Z " fill="#101C34" transform="translate(59,316)"/>
<path d="M0 0 C2.97 1.12 5.33 2.22 8 4 C9.99 4.7 11.99 5.37 14 6 C13.45 9.93 12.39 11.9 10 15 C8.98 17.08 8.01 19.18 7.06 21.29 C6 23 6 23 3 24 C0.59 23.33 0.59 23.33 -2.06 22.25 C-2.94 21.9 -3.82 21.56 -4.72 21.2 C-7 20 -7 20 -9 17 C-8.94 15 -8.94 15 -8 13 C-7.2 12.61 -6.39 12.22 -5.56 11.81 C-2.53 9.67 -2.48 8.89 -1.75 5.38 C-1.62 4.58 -1.49 3.78 -1.36 2.96 C-1 1 -1 1 0 0 Z " fill="#0F1F36" transform="translate(1187,119)"/>
<path d="M0 0 C0.99 0.33 1.98 0.66 3 1 C4.19 3.56 4.19 3.56 5 6 C2.64 8.53 1.34 9.89 -2 11 C-4.49 13.28 -6.68 15.61 -8.82 18.23 C-16.59 27.58 -24.17 28.7 -36 30 C-40.15 30.33 -44.31 30.55 -48.47 30.75 C-51.87 30.91 -51.87 30.91 -54.66 31.54 C-57.21 32.04 -59.36 31.93 -61.94 31.75 C-65.73 31.68 -67.71 32.03 -70.62 34.5 C-71.41 35.32 -72.19 36.15 -73 37 C-74.32 35.68 -75.64 34.36 -77 33 C-75 32.33 -73 31.67 -71 31 C-70.08 30.67 -69.15 30.34 -68.2 30 C-64.93 28.98 -61.82 28.41 -58.44 27.94 C-54.03 27.32 -54.03 27.32 -49.67 26.46 C-46.54 25.92 -43.49 25.81 -40.31 25.71 C-28.03 25.29 -17.99 24.25 -9 15 C-6.36 11.2 -4.46 7.38 -3 3 C-1.44 1.31 -1.44 1.31 0 0 Z " fill="#9aa4a3" transform="translate(113,255)"/>
<path d="M0 0 C0.75 2.25 0.75 2.25 1 5 C0.38 5.54 -0.24 6.07 -0.88 6.62 C-3.92 10.03 -3.62 13.19 -3.82 17.64 C-4 20 -4 20 -5 21 C-6.81 21.13 -6.81 21.13 -9 21.12 C-9.72 21.13 -10.44 21.13 -11.19 21.13 C-13 21 -13 21 -14 20 C-15.35 14.78 -16.53 9.4 -16 4 C-14 1 -14 1 -12 0.38 C-11.34 0.25 -10.68 0.13 -10 0 C-6.72 -1.64 -3.57 -0.52 0 0 Z " fill="#101C33" transform="translate(72,232)"/>
<path d="M0 0 C4.62 1.32 8.34 2.85 12 6 C13.06 9.56 13.06 9.56 13 13 C11.75 14.75 11.75 14.75 10 16 C9.57 16.58 9.13 17.16 8.69 17.75 C7 19 7 19 3.94 18.81 C1 18 1 18 -1 16 C-1.48 12.81 -1.48 12.81 -1.75 9 C-1.85 7.74 -1.95 6.48 -2.05 5.19 C-2 2 -2 2 0 0 Z " fill="#101C33" transform="translate(188,96)"/>
<path d="M0 0 C-1.56 3.79 -3.12 7.58 -4.69 11.38 C-5.12 12.44 -5.56 13.5 -6.01 14.59 C-8.75 21.21 -11.7 27.65 -15 34 C-15.66 34 -16.32 34 -17 34 C-16.5 30.98 -15.99 27.95 -15.44 24.94 C-14.89 22.08 -14.89 22.08 -15.25 19.5 C-14.93 16.26 -13.32 14.95 -11.18 12.61 C-8.7 9.22 -9 5.04 -9 1 C-3.38 -1.12 -3.38 -1.12 0 0 Z " fill="#9aa4a3" transform="translate(233,78)"/>
<path d="M0 0 C2.38 0.06 2.38 0.06 5 1 C6.34 2.66 7.67 4.33 9 6 C10.32 6 11.64 6 13 6 C13.66 5.01 14.32 4.02 15 3 C16.32 3.99 17.64 4.98 19 6 C18.67 8.31 18.34 10.62 18 13 C12.78 14.8 8 12.8 3 11 C-0.19 9.12 -0.19 9.12 -2 7 C-2.44 4.38 -2.44 4.38 -2 2 C-1.34 1.34 -0.68 0.68 0 0 Z " fill="#0F1C31" transform="translate(130,112)"/>
<path d="M0 0 C-0.66 2.97 -1.32 5.94 -2 9 C-4.64 9.33 -7.28 9.66 -10 10 C-10.33 10.99 -10.66 11.98 -11 13 C-12.65 13 -14.3 13 -16 13 C-17.33 9 -18.67 5 -20 1 C-19.02 0.94 -18.05 0.88 -17.04 0.82 C-15.77 0.73 -14.5 0.65 -13.19 0.56 C-11.92 0.48 -10.66 0.4 -9.36 0.32 C-1.32 -0.44 -1.32 -0.44 0 0 Z " fill="#9aa4a3" transform="translate(1251,237)"/>
<path d="M0 0 C2.48 0.5 2.48 0.5 5 1 C5.6 1.97 6.2 2.94 6.81 3.94 C9.15 7.21 9.59 7.49 13.25 8.38 C14.49 8.58 15.72 8.79 17 9 C15.48 12.2 14.54 13.74 11.31 15.31 C8 16 8 16 0 16 C0 10.72 0 5.44 0 0 Z " fill="#0F1C31" transform="translate(0,182)"/>
<path d="M0 0 C0.33 0.66 0.66 1.32 1 2 C1.66 2 2.32 2 3 2 C0.61 9.65 -2.46 16.77 -5.89 24 C-6.6 25.48 -7.3 26.96 -8 28.44 C-8.35 29.17 -8.7 29.91 -9.06 30.67 C-11.59 36.04 -13.92 41.44 -16 47 C-16.99 46.67 -17.98 46.34 -19 46 C-14.31 34.04 -9.41 22.19 -4.24 10.43 C-3.63 9.04 -3.63 9.04 -3 7.62 C-2.64 6.8 -2.28 5.98 -1.9 5.13 C-0.92 2.88 -0.92 2.88 0 0 Z " fill="#101C33" transform="translate(260,10)"/>
<path d="M0 0 C3.69 0.2 4.79 0.76 7.31 3.56 C8.15 4.77 8.15 4.77 9 6 C8.42 6.52 7.84 7.03 7.25 7.56 C4.53 10.51 2.9 13.47 1 17 C-1.44 15.94 -1.44 15.94 -4 14 C-5.06 10.69 -5.06 10.69 -5 7 C-3.52 4.33 -2.16 2.16 0 0 Z " fill="#9aa4a3" transform="translate(211,68)"/>
<path d="M0 0 C5.77 0.48 9.96 2.18 15 5 C15 5.99 15 6.98 15 8 C14.2 8.04 13.41 8.07 12.59 8.11 C6.66 8.48 2.21 8.93 -3 12 C-3.99 12 -4.98 12 -6 12 C-5.54 6.97 -3.01 3.85 0 0 Z " fill="#9aa4a3" transform="translate(169,181)"/>
<path d="M0 0 C2 2 2 2 2 6 C-5.92 6 -13.84 6 -22 6 C-19.64 1.28 -19.64 1.28 -16 0 C-13.12 -0.45 -13.12 -0.45 -10 -0.69 C-8.97 -0.77 -7.94 -0.86 -6.88 -0.95 C-4.28 -1 -2.42 -0.89 0 0 Z " fill="#0F1C31" transform="translate(830,391)"/>
<path d="M0 0 C0 0.66 0 1.32 0 2 C0.81 1.86 1.62 1.71 2.45 1.56 C3.52 1.38 4.59 1.19 5.69 1 C7.27 0.72 7.27 0.72 8.89 0.44 C11.66 0.05 14.21 -0.07 17 0 C18.32 0 19.64 0 21 0 C21 3 21 3 20 5 C17.04 5.41 17.04 5.41 13.19 5.62 C12.18 5.68 12.18 5.68 11.16 5.74 C5.11 6.06 -0.94 6.1 -7 6 C-7.66 4.68 -8.32 3.36 -9 2 C-5.87 0.14 -3.63 -0.2 0 0 Z " fill="#9aa4a3" transform="translate(242,2)"/>
<path d="M0 0 C0.84 0.73 0.84 0.73 1.69 1.47 C4.37 3.24 5.78 3.39 8.96 3.44 C9.91 3.47 10.85 3.49 11.83 3.52 C13.31 3.54 13.31 3.54 14.81 3.56 C30.46 3.84 30.46 3.84 34.78 7.51 C35.85 9.01 36.93 10.5 38 12 C36.02 11.67 34.04 11.34 32 11 C32 10.34 32 9.68 32 9 C31.23 8.97 30.46 8.95 29.66 8.92 C26.17 8.81 22.68 8.69 19.19 8.56 C17.97 8.52 16.76 8.48 15.51 8.44 C14.34 8.4 13.18 8.36 11.98 8.32 C10.91 8.28 9.83 8.24 8.73 8.21 C6 8 6 8 3 7 C0 2.67 0 2.67 0 0 Z " fill="#9aa4a3" transform="translate(1198,277)"/>
<path d="M0 0 C1.99 2.98 3.3 5.81 4.71 9.1 C4.97 9.7 5.23 10.29 5.49 10.91 C6.03 12.17 6.57 13.43 7.11 14.69 C7.93 16.6 8.75 18.5 9.57 20.4 C12.34 26.86 14.91 33.29 17 40 C16.01 40 15.02 40 14 40 C13.27 38.36 13.27 38.36 12.53 36.7 C12.21 35.97 11.89 35.25 11.56 34.51 C10.85 32.91 10.14 31.3 9.43 29.7 C7.53 25.42 5.62 21.15 3.65 16.9 C3.28 16.09 2.91 15.28 2.53 14.44 C1.81 12.88 1.08 11.31 0.35 9.75 C-2.11 4.34 -2.11 4.34 -1 1 C-0.67 0.67 -0.34 0.34 0 0 Z " fill="#101C33" transform="translate(1021,14)"/>
<path d="M0 0 C0 1.65 0 3.3 0 5 C-0.56 5.24 -1.12 5.47 -1.7 5.71 C-4.54 7.3 -6.48 9.25 -8.77 11.57 C-9.66 12.47 -10.54 13.36 -11.46 14.29 C-12.84 15.69 -12.84 15.69 -14.25 17.12 C-15.19 18.08 -16.14 19.03 -17.09 19.99 C-19.4 22.32 -21.7 24.66 -24 27 C-24.99 26.67 -25.98 26.34 -27 26 C-22.01 19.96 -16.57 14.49 -11 9 C-8.58 6.59 -6.16 4.17 -3.81 1.69 C-2 0 -2 0 0 0 Z " fill="#112036" transform="translate(1280,260)"/>
<path d="M0 0 C4.06 -0.03 8.12 -0.05 12.19 -0.06 C13.91 -0.08 13.91 -0.08 15.67 -0.09 C16.79 -0.09 17.9 -0.09 19.04 -0.1 C20.06 -0.1 21.09 -0.11 22.14 -0.11 C24.87 -0.01 27.34 0.38 30 1 C23.99 5.01 15.55 5.07 8.44 5.44 C7.67 5.48 6.91 5.52 6.12 5.56 C2.94 4.72 1.83 2.62 0 0 Z " fill="#0F1C31" transform="translate(290,0)"/>
<path d="M0 0 C1.92 0.71 1.92 0.71 4 2 C4.83 4.16 4.83 4.16 5.25 6.62 C5.4 7.44 5.55 8.26 5.7 9.1 C5.8 9.73 5.9 10.35 6 11 C6.66 11 7.32 11 8 11 C8.99 14.3 9.98 17.6 11 21 C11.66 21 12.32 21 13 21 C13.66 23.97 14.32 26.94 15 30 C14.01 30.66 13.02 31.32 12 32 C11.8 31.32 11.61 30.64 11.41 29.94 C9.17 22.68 6.22 16.11 2.64 9.43 C0.8 5.94 0 4.04 0 0 Z " fill="#101C33" transform="translate(1133,304)"/>
<path d="M0 0 C0.66 0.33 1.32 0.66 2 1 C2 4.96 2 8.92 2 13 C0.02 13.66 -1.96 14.32 -4 15 C-4.33 14.01 -4.66 13.02 -5 12 C-5.66 11.34 -6.32 10.68 -7 10 C-7.69 8 -7.69 8 -8 6 C-6.32 2.64 -3.29 1.67 0 0 Z " fill="#9aa4a3" transform="translate(109,223)"/>
<path d="M0 0 C2.75 -0.05 5.5 -0.09 8.25 -0.12 C9.03 -0.14 9.8 -0.16 10.61 -0.18 C17.72 -0.24 17.72 -0.24 21 2 C20.01 2 19.02 2 18 2 C18 2.66 18 3.32 18 4 C14.81 5.59 11.37 5.1 7.88 5.06 C7.12 5.06 6.37 5.05 5.59 5.05 C3.73 5.04 1.86 5.02 0 5 C0 3.35 0 1.7 0 0 Z " fill="#9aa4a3" transform="translate(0,0)"/>
<path d="M0 0 C1.32 0.33 2.64 0.66 4 1 C4 1.66 4 2.32 4 3 C4.99 3.33 5.98 3.66 7 4 C7.33 5.33 7.67 6.67 8 8 C8.7 8.78 9.4 9.57 10.12 10.38 C12 13 12 13 11.75 16.31 C11.5 17.2 11.26 18.09 11 19 C9.2 18.96 9.2 18.96 7 18 C5.73 15.51 4.74 13.23 3.81 10.62 C3.55 9.94 3.29 9.25 3.03 8.55 C1.96 5.72 0.96 2.87 0 0 Z " fill="#9aa4a3" transform="translate(1049,81)"/>
<path d="M0 0 C3.55 0.2 5.04 1.03 7.88 3.25 C10 6 10 6 9.81 8.81 C9.54 9.53 9.28 10.26 9 11 C8.01 11.33 7.02 11.66 6 12 C5.61 11.57 5.22 11.13 4.81 10.69 C2.72 8.74 0.48 7.41 -2 6 C-1.12 1.12 -1.12 1.12 0 0 Z " fill="#9aa4a3" transform="translate(1063,70)"/>
<path d="M0 0 C6.13 0 9.61 3.12 14 7 C13.34 8.65 12.68 10.3 12 12 C8.09 11.44 6.1 9.58 3.25 6.94 C2.45 6.2 1.65 5.47 0.83 4.71 C0.22 4.15 -0.38 3.58 -1 3 C-0.67 2.01 -0.34 1.02 0 0 Z " fill="#9aa4a3" transform="translate(159,382)"/>
<path d="M0 0 C2.38 0.31 2.38 0.31 5 1 C5.66 1.99 6.32 2.98 7 4 C9.55 5.2 9.55 5.2 12 6 C11.67 7.32 11.34 8.64 11 10 C8.07 10.84 6.29 11.07 3.31 10.31 C0.61 8.78 -0.15 7.97 -1 5 C-0.62 2.25 -0.62 2.25 0 0 Z " fill="#101C33" transform="translate(1150,220)"/>
<path d="M0 0 C2.12 0.38 2.12 0.38 4 1 C3.24 2.32 2.47 3.63 1.69 4.94 C1.26 5.67 0.83 6.4 0.39 7.15 C-1 9 -1 9 -4 10 C-5.79 8.89 -5.79 8.89 -7.62 7.25 C-8.24 6.72 -8.85 6.19 -9.48 5.64 C-11 4 -11 4 -12 1 C-10.95 1.14 -10.95 1.14 -9.88 1.29 C-8.97 1.4 -8.06 1.51 -7.12 1.62 C-5.77 1.8 -5.77 1.8 -4.38 1.98 C-3.6 1.98 -2.81 1.99 -2 2 C-1.34 1.34 -0.68 0.68 0 0 Z " fill="#0F1C31" transform="translate(71,196)"/>
<path d="M0 0 C1.65 0 3.3 0 5 0 C5 4.95 5 9.9 5 15 C-1 12 -1 12 -1.94 10.25 C-2.03 7.07 -1.59 4.12 -1 1 C-0.67 0.67 -0.34 0.34 0 0 Z " fill="#0F1C31" transform="translate(1275,182)"/>
<path d="M0 0 C6.05 -0.2 6.05 -0.2 8 0 C8.66 0.66 9.32 1.32 10 2 C9.62 5.62 9.62 5.62 9 9 C5.6 9 4.93 8.48 2.31 6.5 C1.69 6.04 1.07 5.57 0.43 5.09 C-0.04 4.73 -0.52 4.37 -1 4 C-0.67 2.68 -0.34 1.36 0 0 Z " fill="#9aa4a3" transform="translate(170,151)"/>
<path d="M0 0 C1.05 -0.02 1.05 -0.02 2.12 -0.04 C4 0.19 4 0.19 6 2.19 C6.12 4.81 6.12 4.81 6 7.19 C3.45 8.12 2.26 8.27 -0.36 7.41 C-1.15 7.03 -1.94 6.64 -2.75 6.25 C-3.55 5.87 -4.35 5.49 -5.17 5.1 C-5.78 4.8 -6.38 4.5 -7 4.19 C-6.67 3.2 -6.34 2.21 -6 1.19 C-3.77 0.07 -2.47 0.02 0 0 Z " fill="#0F1F36" transform="translate(1212,117.8125)"/>
<path d="M0 0 C2.59 1.3 3.02 2.29 4 5 C3.62 7.75 3.62 7.75 3 10 C-4.86 7.04 -4.86 7.04 -7 3 C-7 2.01 -7 1.02 -7 0 C-4.31 -1.35 -2.86 -0.72 0 0 Z " fill="#9aa4a3" transform="translate(88,228)"/>
<path d="M0 0 C2.53 0.99 3.79 1.66 5.27 3.99 C8.55 11.74 8.55 11.74 8 16 C7.01 16 6.02 16 5 16 C2.39 11.15 0.64 6.23 -1 1 C-0.67 0.67 -0.34 0.34 0 0 Z " fill="#9aa4a3" transform="translate(1122,288)"/>
<path d="M0 0 C0.38 1.99 0.71 3.99 1 6 C0 7 0 7 -3.56 7.06 C-4.7 7.04 -5.83 7.02 -7 7 C-7.66 5.35 -8.32 3.7 -9 2 C-3.38 -1.12 -3.38 -1.12 0 0 Z " fill="#9aa4a3" transform="translate(1151,184)"/>
<path d="M0 0 C0.76 0.21 1.53 0.41 2.31 0.62 C2.64 1.94 2.97 3.27 3.31 4.62 C0.08 6.78 -0.97 6.83 -4.69 6.62 C-5.02 4.97 -5.35 3.33 -5.69 1.62 C-2.69 -0.38 -2.69 -0.38 0 0 Z " fill="#0F1F36" transform="translate(1233.6875,109.375)"/>
<path d="M0 0 C0.7 0.5 1.4 0.99 2.12 1.5 C5.44 3.23 7.3 3.39 11 3 C12.34 2.35 13.68 1.68 15 1 C15.99 1.33 16.98 1.66 18 2 C14.77 5.07 12.7 6.77 8.44 8.19 C5 8 5 8 3.45 6.78 C0 2.81 0 2.81 0 0 Z " fill="#9aa4a3" transform="translate(1137,257)"/>
<path d="M0 0 C2.38 0.31 2.38 0.31 5 1 C5.66 1.99 6.32 2.98 7 4 C3.8 6.83 1.22 7.52 -3 8 C-2.01 5.36 -1.02 2.72 0 0 Z " fill="#0F1C31" transform="translate(41,191)"/>
<path d="M0 0 C-0.56 3.27 -1.5 4.83 -4 7 C-6 6 -8 5 -10 4 C-10 3.34 -10 2.68 -10 2 C-6.6 -0.09 -3.95 -0.18 0 0 Z " fill="#9aa4a3" transform="translate(209,93)"/>
<path d="M0 0 C5.19 3.56 9.43 7.32 13.46 12.17 C14.9 13.88 16.4 15.45 18 17 C15 17 15 17 13.28 15.65 C12.67 15.04 12.06 14.42 11.43 13.79 C10.76 13.12 10.09 12.45 9.4 11.77 C8.71 11.06 8.02 10.35 7.31 9.62 C6.26 8.58 6.26 8.58 5.19 7.51 C0 2.27 0 2.27 0 0 Z " fill="#101C33" transform="translate(16,273)"/>
<path d="M0 0 C3.96 1.98 3.96 1.98 8 4 C7.67 4.99 7.34 5.98 7 7 C4.69 7.69 4.69 7.69 2 8 C0.12 6.88 0.12 6.88 -1 5 C-0.69 2.31 -0.69 2.31 0 0 Z " fill="#9aa4a3" transform="translate(1162,195)"/>
<path d="M0 0 C2.01 0.29 4.01 0.62 6 1 C5.67 3.31 5.34 5.62 5 8 C3.35 7.67 1.7 7.34 0 7 C-0.38 5.01 -0.71 3.01 -1 1 C-0.67 0.67 -0.34 0.34 0 0 Z " fill="#9aa4a3" transform="translate(1063,108)"/>
<path d="M0 0 C1.73 -0.03 3.46 -0.05 5.19 -0.06 C6.15 -0.07 7.11 -0.09 8.11 -0.1 C10.86 -0 13.32 0.38 16 1 C12.27 3.48 9.33 4.41 4.83 3.61 C2.88 3.12 0.94 2.57 -1 2 C-0.67 1.34 -0.34 0.68 0 0 Z " fill="#0F1C31" transform="translate(1072,0)"/>
<path d="M0 0 C0.33 0.99 0.66 1.98 1 3 C-1.74 7.65 -5.87 10.46 -11 12 C-13.25 11.6 -13.25 11.6 -15 11 C-14.3 10.69 -13.6 10.37 -12.88 10.05 C-11.97 9.62 -11.06 9.19 -10.12 8.75 C-9.22 8.33 -8.32 7.91 -7.38 7.48 C-4.73 5.83 -4.23 4.78 -3 2 C-2.01 1.34 -1.02 0.68 0 0 Z " fill="#9aa4a3" transform="translate(1139,362)"/>
<path d="M0 0 C0 2.64 0 5.28 0 8 C-4.75 6.12 -4.75 6.12 -7 5 C-6 2 -6 2 -4.06 0.81 C-2 0 -2 0 0 0 Z " fill="#9aa4a3" transform="translate(9,253)"/>
<path d="M0 0 C0.99 0.33 1.98 0.66 3 1 C3.75 3 3.75 3 4 5 C3 6 3 6 0.06 6.19 C-3 6 -3 6 -5 4 C-2.69 1.94 -2.69 1.94 0 0 Z " fill="#9aa4a3" transform="translate(101,251)"/>
<path d="M0 0 C2.62 0.38 2.62 0.38 5 1 C4.34 3.31 3.68 5.62 3 8 C2.01 7.67 1.02 7.34 0 7 C-1.19 4.44 -1.19 4.44 -2 2 C-1.34 1.34 -0.68 0.68 0 0 Z " fill="#9aa4a3" transform="translate(1255,240)"/>
<path d="M0 0 C1.98 0 3.96 0 6 0 C6 2.31 6 4.62 6 7 C4.35 7 2.7 7 1 7 C0.67 4.69 0.34 2.38 0 0 Z " fill="#9aa4a3" transform="translate(1274,237)"/>
<path d="M0 0 C3.36 1.48 5.74 3.4 8.44 5.88 C11.55 8.7 14.68 11.43 18 14 C17.67 14.66 17.34 15.32 17 16 C16.61 15.57 16.22 15.13 15.81 14.69 C14.03 12.9 14.03 12.9 11.69 11.68 C8.77 9.86 6.6 7.83 4.19 5.38 C3.4 4.58 2.61 3.78 1.79 2.96 C0 1 0 1 0 0 Z " fill="#9aa4a3" transform="translate(168,381)"/>
<path d="M0 0 C0.56 0.77 0.56 0.77 1.12 1.56 C0.46 2.88 -0.19 4.2 -0.88 5.56 C-4.24 4.17 -5.86 2.58 -7.88 -0.44 C-2.34 -1.79 -2.34 -1.79 0 0 Z " fill="#9aa4a3" transform="translate(1165.875,256.4375)"/>
<path d="M0 0 C1.65 0.33 3.3 0.66 5 1 C5 2.32 5 3.64 5 5 C3.02 5.99 3.02 5.99 1 7 C0.01 5.68 -0.98 4.36 -2 3 C-1.34 2.01 -0.68 1.02 0 0 Z " fill="#9aa4a3" transform="translate(1080,90)"/>
<path d="M0 0 C0.66 0.33 1.32 0.66 2 1 C1 8.43 1 8.43 0 12 C-0.99 12 -1.98 12 -3 12 C-2.69 10.19 -2.38 8.37 -2.06 6.56 C-1.8 5.05 -1.8 5.05 -1.54 3.5 C-1 1 -1 1 0 0 Z " fill="#9aa4a3" transform="translate(1100,152)"/>
<path d="M0 0 C4.75 0.75 4.75 0.75 7 3 C5.31 4.62 5.31 4.62 3 6 C0.25 5.19 0.25 5.19 -2 4 C-1.34 2.68 -0.68 1.36 0 0 Z " fill="#192437" transform="translate(1178,11)"/>
<path d="M0 0 C0.66 1.32 1.32 2.64 2 4 C-3.37 4.97 -3.37 4.97 -6 5 C-8 3.56 -8 3.56 -9 2 C-3.38 0 -3.38 0 0 0 Z " fill="#101C33" transform="translate(70,313)"/>
<path d="M0 0 C0.99 0.66 1.98 1.32 3 2 C3.19 4.62 3.19 4.62 3 7 C1.68 7 0.36 7 -1 7 C-1.62 4.62 -1.62 4.62 -2 2 C-1.34 1.34 -0.68 0.68 0 0 Z " fill="#9aa4a3" transform="translate(123,224)"/>
<path d="M0 0 C1.38 2.76 0.65 4.07 -0.19 7 C-0.43 7.89 -0.67 8.77 -0.92 9.69 C-2.2 12.43 -3.21 12.98 -6 14 C-5.57 12.97 -5.57 12.97 -5.12 11.92 C-4.75 11.02 -4.38 10.12 -4 9.19 C-3.63 8.29 -3.26 7.4 -2.88 6.48 C-1.83 3.97 -1.83 3.97 -2 1 C-1.34 0.67 -0.68 0.34 0 0 Z " fill="#101C33" transform="translate(131,336)"/>
<path d="M0 0 C0.99 0.33 1.98 0.66 3 1 C3.69 3.06 3.69 3.06 4 5 C4.66 5 5.32 5 6 5 C6.33 6.98 6.66 8.96 7 11 C3.17 7.58 1.28 4.99 0 0 Z " fill="#101C33" transform="translate(1147,338)"/>
<path d="M0 0 C0.99 0.66 1.98 1.32 3 2 C2.67 3.65 2.34 5.3 2 7 C1.01 7 0.02 7 -1 7 C-1.62 4.62 -1.62 4.62 -2 2 C-1.34 1.34 -0.68 0.68 0 0 Z " fill="#9aa4a3" transform="translate(51,240)"/>
<path d="M0 0 C2.47 0.99 2.47 0.99 5 2 C4.67 3.32 4.34 4.64 4 6 C2.68 5.67 1.36 5.34 0 5 C-0.56 3.06 -0.56 3.06 -1 1 C-0.67 0.67 -0.34 0.34 0 0 Z " fill="#9aa4a3" transform="translate(148,358)"/>
<path d="M0 0 C5.82 0.97 8.96 2.67 13 7 C12.01 7.5 12.01 7.5 11 8 C10.11 7.4 9.23 6.8 8.31 6.19 C6.28 4.85 4.22 3.54 2.12 2.31 C1.42 1.88 0.72 1.45 0 1 C0 0.67 0 0.34 0 0 Z " fill="#101C33" transform="translate(47,302)"/>
<path d="M0 0 C8.19 -0.47 8.19 -0.47 11.56 1.5 C12.04 2 12.51 2.49 13 3 C11.7 2.81 10.4 2.63 9.06 2.44 C6.91 2.1 6.91 2.1 5 2 C4.67 2.33 4.34 2.66 4 3 C2.33 3.04 0.67 3.04 -1 3 C-0.67 2.01 -0.34 1.02 0 0 Z " fill="#9aa4a3" transform="translate(1180,269)"/>
</svg>
