<svg xmlns="http://www.w3.org/2000/svg" width="430" height="430" style="width:100%;height:100%;transform:translate3d(0,0,0);content-visibility:visible" viewBox="0 0 430 430"><defs><clipPath id="a"><path d="M0 0h430v430H0z"/></clipPath><clipPath id="b"><path d="M0 0h430v430H0z"/></clipPath></defs><g clip-path="url(#a)"><g fill="none" stroke-linecap="round" stroke-linejoin="round" stroke-width="12.04" clip-path="url(#b)" style="display:block"><path stroke="#fff" d="M72.159 155.904c0 46.955 75.621 44.822 71.233 89.645m193.616-52.739c23.567 49.907-71.752 71.702-71.752 71.702" class="secondary"/><path stroke="#fff" d="M72.159 155.904s-25.138 66.761-14.773 111.848c10.552 45.9 114.473 19.58 148.779 19.047 22.181-.344 65.82 10.333 104.545 3.493 26.674-4.711 51.016-17.733 64.409-48.392v-14.709c0-18.974-15.382-34.356-34.356-34.356h-.687a199.39 199.39 0 0 1-86.112-19.554l-58.212-27.873c-9.487-4.543-20.801-1.855-27.349 6.377-14.911 18.746-47.128 44.003-96.244 4.119zm302.96 85.996s-3.345 4.192-12.78 9.005c-21.897 11.171-76.597 25.687-198.412-1.091-84.477-18.57-108.944-12.166-108.944-12.166m224.509-54.217-24.269 15.3m-3.02-26.294-24.269 15.3m-2.044-27.902-24.269 15.3M56.342 262.43c31.996-3.296 58.728 8.839 80.536 8.839" class="primary"/></g></g></svg>